<?xml version="1.0" encoding="UTF-8"?>
<svg version="1.1" xmlns="http://www.w3.org/2000/svg" width="225" height="225">
<path d="M0 0 C74.25 0 148.5 0 225 0 C225 74.25 225 148.5 225 225 C150.75 225 76.5 225 0 225 C0 150.75 0 76.5 0 0 Z " fill="#FDFDFD" transform="translate(0,0)"/>
<path d="M0 0 C4.6397971 2.02495888 7.58211565 4.67726653 10.671875 8.65234375 C12.00695729 10.34974926 13.44335521 11.83784078 14.99609375 13.3359375 C15.47046875 12.5934375 15.94484375 11.8509375 16.43359375 11.0859375 C23.3937925 3.61645592 35.53603001 1.69063726 45.33984375 1.15234375 C47.9004036 1.14904406 50.43978862 1.19507987 52.99609375 1.3359375 C52.99609375 1.6659375 52.99609375 1.9959375 52.99609375 2.3359375 C52.37677979 2.43092529 51.75746582 2.52591309 51.11938477 2.6237793 C48.26265099 3.07243215 45.41094405 3.54774202 42.55859375 4.0234375 C41.58470703 4.17232422 40.61082031 4.32121094 39.60742188 4.47460938 C32.17039093 5.74313305 25.4430799 7.88895135 19.99609375 13.3359375 C20.17788254 16.15366381 20.760811 17.12418303 22.87109375 19.0234375 C25.04958971 20.48125858 25.04958971 20.48125858 27.99609375 21.3359375 C28.52332031 20.71074219 29.05054688 20.08554688 29.59375 19.44140625 C32.51525243 16.88093501 34.64723859 16.40570853 38.43359375 15.6484375 C39.54605469 15.41769531 40.65851563 15.18695313 41.8046875 14.94921875 C43.38443359 14.64564453 43.38443359 14.64564453 44.99609375 14.3359375 C45.78016602 14.16247803 46.56423828 13.98901855 47.37207031 13.81030273 C62.25866413 11.11913677 81.03819034 12.2901413 94.99609375 18.3359375 C94.99609375 19.3259375 94.99609375 20.3159375 94.99609375 21.3359375 C93.76632813 21.45710938 92.5365625 21.57828125 91.26953125 21.703125 C89.63668195 21.87204045 88.00387143 22.04133114 86.37109375 22.2109375 C85.56285156 22.28957031 84.75460938 22.36820313 83.921875 22.44921875 C79.36110326 22.93125154 75.3106379 23.6743493 70.99609375 25.3359375 C82.37465544 25.9455033 95.42619394 23.66823549 105.99609375 19.3359375 C108.25160111 17.52640662 108.25160111 17.52640662 108.12109375 14.9609375 C106.69127113 11.62468471 104.83137976 10.75622296 101.5859375 9.3125 C94.88499327 6.78574878 88.04539495 4.63070711 80.99609375 3.3359375 C80.99609375 3.0059375 80.99609375 2.6759375 80.99609375 2.3359375 C88.07653287 2.48344665 94.61560784 3.54312502 101.37109375 5.5859375 C102.03625 5.77824951 102.70140625 5.97056152 103.38671875 6.16870117 C108.2904073 7.7324904 111.38010283 9.78609276 114.99609375 13.3359375 C115.62109375 16.3359375 115.62109375 16.3359375 114.99609375 19.3359375 C110.21776658 26.51454065 102.38449824 28.28156138 94.37255859 30.20654297 C84.6366885 32.12411934 75.28621176 32.89768972 65.37109375 32.8359375 C64.27272186 32.83429092 64.27272186 32.83429092 63.15216064 32.83261108 C47.29831527 32.76479705 31.32775913 31.67360275 17.99609375 22.3359375 C25.84509302 38.93039535 32.83904668 48.73707324 50.70703125 55.609375 C60.97430803 58.86827173 70.1353937 57.4569984 79.99609375 53.3359375 C86.43610126 49.71106841 91.86539596 45.64516184 96.99609375 40.3359375 C98.10483549 39.22332844 99.21563573 38.11276818 100.328125 37.00390625 C100.89853516 36.43349609 101.46894531 35.86308594 102.05664062 35.27539062 C104.703125 32.62890625 107.34960938 29.98242188 109.99609375 27.3359375 C111.73403809 32.54977053 109.07306296 37.43578261 106.99609375 42.3359375 C100.58250458 53.06029971 90.50166567 61.37965915 78.546875 65.09765625 C65.20278211 68.12747444 52.68201286 66.34839322 40.74609375 59.5859375 C26.22912627 50.16635181 18.41929617 36.96172001 10.84179688 21.76953125 C7.65708442 15.63341862 5.17729344 11.62196169 -1.00390625 8.3359375 C-4.766906 8.14573183 -4.766906 8.14573183 -8.00390625 9.3359375 C-11.13145505 14.0272607 -10.80716726 18.8544249 -10.00390625 24.3359375 C-6.14092671 29.3792719 -0.58447962 30.78199147 5.203125 33.08984375 C8.88881097 34.73422672 10.72126495 36.00493818 12.99609375 39.3359375 C13.30859375 42.6484375 13.30859375 42.6484375 12.99609375 45.3359375 C10.52109375 45.8309375 10.52109375 45.8309375 7.99609375 46.3359375 C8.32609375 44.3559375 8.65609375 42.3759375 8.99609375 40.3359375 C7.91070312 40.09359375 6.8253125 39.85125 5.70703125 39.6015625 C4.26156868 39.26366216 2.81626436 38.92508437 1.37109375 38.5859375 C0.30181641 38.35003906 0.30181641 38.35003906 -0.7890625 38.109375 C-7.52862591 36.50177272 -12.31258443 33.5585905 -16.81640625 28.2109375 C-17.40035156 27.52773437 -17.98429687 26.84453125 -18.5859375 26.140625 C-22.22281617 21.51187032 -21.51360136 15.97213122 -21.00390625 10.3359375 C-17.40166641 2.08080452 -8.81878168 -2.92240329 0 0 Z " fill="#331715" transform="translate(51.00390625,109.6640625)"/>
<path d="M0 0 C6.79563408 2.14598971 9.58122671 5.76982661 12.859375 11.87890625 C14.01840583 14.14436791 15.16911377 16.41410234 16.3125 18.6875 C25.81969805 37.02544238 36.40240998 50.21856139 56.5625 57.125 C59.22610605 57.90889639 61.84364399 58.54985738 64.5625 59.125 C64.0675 60.115 64.0675 60.115 63.5625 61.125 C61.24093403 61.53229228 58.9056213 61.86938677 56.5625 62.125 C56.5625 62.785 56.5625 63.445 56.5625 64.125 C73.0040584 63.7277277 73.0040584 63.7277277 89.26953125 61.5234375 C91.5625 61.125 91.5625 61.125 95.25 61.1875 C99.71068386 61.10333615 103.42431181 59.70145264 107.5625 58.125 C106.225298 61.35041185 105.20316464 62.72087303 102 64.125 C81.354065 72.42288775 56.12866132 73.27565641 35.45703125 64.609375 C30.01470826 61.81844013 25.6974672 58.7732568 23.25 53.0625 C23.58966952 49.86960647 24.01862153 49.29720425 26.0625 47 C26.8875 46.05125 27.7125 45.1025 28.5625 44.125 C28.52874167 41.80328408 28.52874167 41.80328408 27.5625 40.125 C21.49294737 39.34685223 17.42947544 41.81760785 12.5625 45.125 C10.71409063 46.70248412 9.18319649 48.30171645 7.5625 50.125 C7.0675 50.62 7.0675 50.62 6.5625 51.125 C5.97847718 56.675857 5.97847718 56.675857 8.1171875 61.63671875 C11.12882284 64.7012742 14.15201117 66.35386396 18 68.1875 C18.7115625 68.53184082 19.423125 68.87618164 20.15625 69.23095703 C51.49009422 84.02204494 90.8420072 80.76570927 122.76342773 69.62817383 C124.5625 69.125 124.5625 69.125 127.5625 69.125 C126.12408998 73.44023005 123.53626205 74.37102116 119.6875 76.57421875 C91.51785413 90.55340551 53.15443786 91.26554857 23.5625 81.875 C14.74167463 78.68732309 5.87118191 74.4043271 0.5390625 66.359375 C-1.40217797 61.91781681 -1.58201496 57.81206127 -0.4375 53.125 C2.41422848 48.30874746 6.44394822 44.46490939 11.5625 42.125 C12.2225 42.125 12.8825 42.125 13.5625 42.125 C13.5625 41.465 13.5625 40.805 13.5625 40.125 C12.9025 39.795 12.2425 39.465 11.5625 39.125 C13.0475 38.63 13.0475 38.63 14.5625 38.125 C14.5625 35.485 14.5625 32.845 14.5625 30.125 C9.86764614 27.65464049 4.89469031 25.81901817 -0.02734375 23.85546875 C-3.6921255 21.99579142 -5.90367095 20.35716554 -8.4375 17.125 C-9.69005204 11.5842992 -9.38208696 6.6420639 -6.375 1.8125 C-3.4375 0.125 -3.4375 0.125 0 0 Z " fill="#F6F5F3" transform="translate(48.4375,116.875)"/>
<path d="M0 0 C0.495 0.99 0.495 0.99 1 2 C0.0816217 3.70091929 -0.9113316 5.36185362 -1.9375 7 C-5.01429833 12.49941758 -6.36104431 16.76013533 -5 23 C-2.4603374 29.24031381 2.64865214 34.2072039 6.91015625 39.3125 C13.15781397 47.34687104 14.68934594 55.00448386 14 65 C12.46785673 70.2667425 9.70544192 72.27142259 5.13671875 74.90625 C3.13917713 75.92875759 1.13630876 76.83232113 -0.9375 77.6875 C-4.09419991 78.65011462 -4.09419991 78.65011462 -5 81 C-7.84081419 84.99818294 -10.71603228 87.59026816 -15 90 C-16.32 90 -17.64 90 -19 90 C-17.125 85.25 -17.125 85.25 -16 83 C-14.45472808 71.52083713 -20.02825375 64.1740239 -26.625 55.4375 C-31.90170815 48.44016397 -35.69222879 42.0899513 -35.3671875 33.04296875 C-34.78213567 29.78783997 -33.39861516 26.99292826 -31.94140625 24.04296875 C-30.86069195 21.92764418 -30.86069195 21.92764418 -30.5 19.125 C-29.81952037 16.23296156 -28.4495913 15.55883082 -26 14 C-25.34 13.34 -24.68 12.68 -24 12 C-21.71123493 11.42353865 -19.42110098 11.04930747 -17.09375 10.66015625 C-14.62984828 10.12373978 -14.62984828 10.12373978 -13 7 C-12.34 7.33 -11.68 7.66 -11 8 C-10.67 7.34 -10.34 6.68 -10 6 C-10 6.66 -10 7.32 -10 8 C-9.34 8 -8.68 8 -8 8 C-7.67 7.01 -7.34 6.02 -7 5 C-6.34 5 -5.68 5 -5 5 C-5 4.34 -5 3.68 -5 3 C-2.5 1.375 -2.5 1.375 0 0 Z " fill="#FBF8F2" transform="translate(120,19)"/>
<path d="M0 0 C0.66 0.33 1.32 0.66 2 1 C1.38511719 1.38671875 0.77023438 1.7734375 0.13671875 2.171875 C-0.67152344 2.69265625 -1.47976562 3.2134375 -2.3125 3.75 C-3.11300781 4.26046875 -3.91351563 4.7709375 -4.73828125 5.296875 C-7.05659381 7.04261641 -8.50243668 8.52143792 -10 11 C-10.68293147 16.57002449 -10.68293147 16.57002449 -8.4375 21.5 C-5.4330041 24.58153426 -2.41602122 26.22622767 1.4375 28.0625 C2.1490625 28.40684082 2.860625 28.75118164 3.59375 29.10595703 C34.92759422 43.89704494 74.2795072 40.64070927 106.20092773 29.50317383 C108 29 108 29 111 29 C109.56158998 33.31523005 106.97376205 34.24602116 103.125 36.44921875 C74.95535413 50.42840551 36.59193786 51.14054857 7 41.75 C-1.82082537 38.56232309 -10.69131809 34.2793271 -16.0234375 26.234375 C-17.96959706 21.78156193 -18.11710808 17.70144873 -17 13 C-13.46459596 6.37813211 -7.00033734 2.34197757 0 0 Z " fill="#7D4321" transform="translate(65,157)"/>
<path d="M0 0 C2.37785947 2.90790864 4.09993097 5.98848394 5.80200195 9.33007812 C12.81254668 23.08355075 20.99970448 30.61527095 35.7109375 36.2734375 C45.97821428 39.53233423 55.13929995 38.1210609 65 34 C71.44000751 30.37513091 76.86930221 26.30922434 82 21 C83.10874174 19.88739094 84.21954198 18.77683068 85.33203125 17.66796875 C85.90244141 17.09755859 86.47285156 16.52714844 87.06054688 15.93945312 C89.70703125 13.29296875 92.35351562 10.64648438 95 8 C96.73794434 13.21383303 94.07696921 18.09984511 92 23 C85.58641083 33.72436221 75.50557192 42.04372165 63.55078125 45.76171875 C50.20668836 48.79153694 37.68591911 47.01245572 25.75 40.25 C11.76506651 31.17563377 3.90775446 18.78691189 -3 4 C-2.01 2.68 -1.02 1.36 0 0 Z " fill="#2C1312" transform="translate(66,129)"/>
<path d="M0 0 C-0.93134221 2.40596737 -1.88837554 4.77206456 -3.0234375 7.08984375 C-5.6134437 12.46272895 -7.34403779 16.84327385 -5.41015625 22.82421875 C-3.44961499 27.27835166 -0.63272393 30.73706662 2.5 34.4375 C10.18288079 43.52301199 12.82418035 52.1767582 12 64 C11.13577807 68.2258411 9.69758545 71.26470723 6.6875 74.4375 C3.72993737 76.15701316 1.38742917 76.68489031 -2 77 C-0.125 72.25 -0.125 72.25 1 70 C2.54527192 58.52083713 -3.02825375 51.1740239 -9.625 42.4375 C-14.86903626 35.4834895 -18.80133754 29.05285084 -18.3359375 20.03125 C-16.90848984 11.40017112 -11.94495255 6.0136674 -5 1 C-2 0 -2 0 0 0 Z " fill="#8F552C" transform="translate(103,32)"/>
<path d="M0 0 C-0.103125 1.0725 -0.20625 2.145 -0.3125 3.25 C-0.36102234 7.02034055 -0.36102234 7.02034055 1.9375 9.3125 C5.84484879 11.46552893 9.6271394 12.27595336 14 13 C16.09506252 9.55291141 16.09506252 9.55291141 18 6 C18.6290625 6.26554688 19.258125 6.53109375 19.90625 6.8046875 C25.22911972 9.0011729 30.37897236 10.75088275 36 12 C35.67 12.66 35.34 13.32 35 14 C32.67843403 14.40729228 30.3431213 14.74438677 28 15 C28 15.66 28 16.32 28 17 C44.4415584 16.6027277 44.4415584 16.6027277 60.70703125 14.3984375 C63 14 63 14 66.6875 14.0625 C71.14818386 13.97833615 74.86181181 12.57645264 79 11 C77.662798 14.22541185 76.64066464 15.59587303 73.4375 17 C52.791565 25.29788775 27.56616132 26.15065641 6.89453125 17.484375 C1.401663 14.66751949 -3.02516498 11.66796954 -5.1875 5.75 C-5 3 -5 3 -3.6875 1.125 C-2 0 -2 0 0 0 Z " fill="#F8F3EA" transform="translate(77,164)"/>
<path d="M0 0 C0.33 0.66 0.66 1.32 1 2 C0.0816217 3.70091929 -0.9113316 5.36185362 -1.9375 7 C-5.01429833 12.49941758 -6.36104431 16.76013533 -5 23 C-2.4603374 29.24031381 2.64865214 34.2072039 6.91015625 39.3125 C13.15781397 47.34687104 14.68934594 55.00448386 14 65 C12.43236049 70.38876083 9.44566835 72.41017961 4.83984375 75.21484375 C4.23269531 75.47394531 3.62554687 75.73304687 3 76 C2.34 75.67 1.68 75.34 1 75 C1.639375 74.236875 2.27875 73.47375 2.9375 72.6875 C6.69422801 67.79236957 6.48345497 62.93828649 6 57 C3.68422488 49.50778638 -1.14739792 42.52635953 -6.05078125 36.46484375 C-10.17921625 31.24431773 -13.95892951 24.94822818 -13.49609375 18.08984375 C-12.46504071 13.74643132 -10.53598043 9.66467031 -8 6 C-7.01 5.67 -6.02 5.34 -5 5 C-5 4.34 -5 3.68 -5 3 C-2.5 1.375 -2.5 1.375 0 0 Z " fill="#805132" transform="translate(120,19)"/>
<path d="M0 0 C0.66 0.33 1.32 0.66 2 1 C1.38511719 1.38671875 0.77023438 1.7734375 0.13671875 2.171875 C-0.67152344 2.69265625 -1.47976562 3.2134375 -2.3125 3.75 C-3.11300781 4.26046875 -3.91351563 4.7709375 -4.73828125 5.296875 C-7.05659381 7.04261641 -8.50243668 8.52143792 -10 11 C-10.68293147 16.57002449 -10.68293147 16.57002449 -8.4375 21.5 C-5.43241317 24.58214034 -2.41566295 26.22423924 1.4375 28.0625 C2.14036133 28.40611572 2.84322266 28.74973145 3.56738281 29.10375977 C11.11741897 32.6955659 18.88825711 35.01069163 27 37 C27 37.99 27 38.98 27 40 C28.32 40.33 29.64 40.66 31 41 C30.01 41.495 30.01 41.495 29 42 C28.67 42.99 28.34 43.98 28 45 C14.83658749 46.07456429 -0.15371954 40.52417263 -10.5 32.5 C-14.90017903 28.09982097 -17.24421812 24.91786428 -17.6875 18.625 C-17.46371133 13.31182382 -15.9595201 10.4445138 -12.21484375 6.73046875 C-8.49856142 3.82691836 -4.48276955 1.49971998 0 0 Z " fill="#321715" transform="translate(65,157)"/>
<path d="M0 0 C1.9765625 1.23046875 1.9765625 1.23046875 4 3 C5.14490142 8.09384104 3.94897039 13.24938466 2 18 C2.84304687 17.98839844 3.68609375 17.97679687 4.5546875 17.96484375 C5.65039062 17.95582031 6.74609375 17.94679687 7.875 17.9375 C9.51082031 17.92009766 9.51082031 17.92009766 11.1796875 17.90234375 C14 18 14 18 16 19 C15.79189693 22.64180368 15.06882757 23.92681625 12.53125 26.625 C8.53540607 29.81583571 4.57672684 29.77696129 -0.375 29.8125 C-1.20644531 29.83763672 -2.03789062 29.86277344 -2.89453125 29.88867188 C-4.92918593 29.94713896 -6.96464074 29.9765315 -9 30 C-9.99 32.475 -9.99 32.475 -11 35 C-11.66 34.67 -12.32 34.34 -13 34 C-13 32.35 -13 30.7 -13 29 C-13.66 28.67 -14.32 28.34 -15 28 C-11.36435677 17.66711924 -6.50940048 8.81676722 0 0 Z " fill="#3A1610" transform="translate(186,136)"/>
<path d="M0 0 C1.41623216 -0.05447047 2.83308191 -0.09300508 4.25 -0.125 C5.03890625 -0.14820312 5.8278125 -0.17140625 6.640625 -0.1953125 C9.26501428 0.02193827 10.66902699 0.81551759 13 2 C14.37436744 2.48433086 15.75937208 2.93929477 17.15234375 3.3671875 C17.92900391 3.61339844 18.70566406 3.85960938 19.50585938 4.11328125 C21.12117847 4.61928482 22.73837515 5.11933479 24.35742188 5.61328125 C28.98576221 7.09342986 32.374177 8.61589853 36 12 C35.69753459 14.79780507 35.49285294 16.50462608 33.47265625 18.53515625 C30.03496156 20.57170524 26.56816183 21.28648189 22.6875 22.125 C21.95337891 22.29386719 21.21925781 22.46273437 20.46289062 22.63671875 C11.24627067 24.71393389 2.4984129 25.12682452 -6.9375 25.0625 C-8.19369141 25.05798828 -9.44988281 25.05347656 -10.74414062 25.04882812 C-13.82947663 25.03709681 -16.91471316 25.020681 -20 25 C-20 24.67 -20 24.34 -20 24 C-18.82824219 23.96261719 -17.65648438 23.92523438 -16.44921875 23.88671875 C-8.49086579 23.57367832 -1.30808209 23.08055282 6.3203125 20.6328125 C11.467901 19.41720122 16.7463438 19.77448535 22 20 C22 19.01 22 18.02 22 17 C19.62524166 16.51960995 17.25020845 16.04065526 14.875 15.5625 C13.87726563 15.36043945 13.87726563 15.36043945 12.859375 15.15429688 C8.91653193 14.36186273 4.97087879 13.63707245 1 13 C1 12.67 1 12.34 1 12 C5.95 11.67 10.9 11.34 16 11 C13.71294169 9.85647084 12.40735238 9.89665561 9.875 9.9375 C7.956875 9.9684375 7.956875 9.9684375 6 10 C6 9.34 6 8.68 6 8 C5.34 7.67 4.68 7.34 4 7 C4.33 5.02 4.66 3.04 5 1 C3.35 1 1.7 1 0 1 C0 0.67 0 0.34 0 0 Z " fill="#F7F5F3" transform="translate(124,111)"/>
<path d="M0 0 C31.67069873 -0.77352032 31.67069873 -0.77352032 45 5 C45 5.99 45 6.98 45 8 C43.15535156 8.18175781 43.15535156 8.18175781 41.2734375 8.3671875 C39.6405882 8.53610295 38.00777768 8.70539364 36.375 8.875 C35.56675781 8.95363281 34.75851563 9.03226563 33.92578125 9.11328125 C30.45581116 9.48002606 27.39538538 9.85970196 24.09375 11.03125 C19.49130182 12.47242064 14.92199588 12.46900013 10.125 12.625 C8.66320312 12.68300781 8.66320312 12.68300781 7.171875 12.7421875 C4.7814328 12.83593033 2.39098756 12.9216383 0 13 C0.33 12.01 0.66 11.02 1 10 C0.38125 9.773125 -0.2375 9.54625 -0.875 9.3125 C-3.61410209 7.62070165 -4.05024472 6.00755839 -5 3 C-3.35 3 -1.7 3 0 3 C0 2.01 0 1.02 0 0 Z " fill="#6F361D" transform="translate(101,123)"/>
<path d="M0 0 C5.875 1.875 5.875 1.875 7 3 C7.33 2.01 7.66 1.02 8 0 C9.32 0 10.64 0 12 0 C12.12375 0.598125 12.2475 1.19625 12.375 1.8125 C12.95475985 4.26231348 12.95475985 4.26231348 15 7 C18.08365871 7.2502157 18.08365871 7.2502157 21 7 C24.08225594 13.71710757 24.13009578 21.48137187 21.8125 28.5 C19.89329014 32.20606042 18.58962137 33.91301083 15 36 C11.6875 36.75 11.6875 36.75 9 37 C10.875 32.25 10.875 32.25 12 30 C13.21493739 20.97475078 10.3592679 14.6085824 5.109375 7.40625 C3.87907839 5.82586899 2.62933368 4.26032167 1.35546875 2.71484375 C0 1 0 1 0 0 Z " fill="#72381B" transform="translate(92,72)"/>
<path d="M0 0 C1.32 0 2.64 0 4 0 C4.33 0.99 4.66 1.98 5 3 C4.01 3.33 3.02 3.66 2 4 C1.67 5.98 1.34 7.96 1 10 C1.66 10.33 2.32 10.66 3 11 C3.66 10.34 4.32 9.68 5 9 C5.07476562 9.59167969 5.14953125 10.18335937 5.2265625 10.79296875 C6.02123949 15.56882164 6.81900053 18.90715594 10.95703125 21.890625 C13.58205922 23.3160704 16.28814507 24.39435302 19.0625 25.5 C23.82844014 27.40045563 27.08013165 28.72447848 30 33 C30.3125 36.3125 30.3125 36.3125 30 39 C27.525 39.495 27.525 39.495 25 40 C25.33 38.02 25.66 36.04 26 34 C24.91460937 33.75765625 23.82921875 33.5153125 22.7109375 33.265625 C21.26547493 32.92772466 19.82017061 32.58914687 18.375 32.25 C17.30572266 32.01410156 17.30572266 32.01410156 16.21484375 31.7734375 C9.47528034 30.16583522 4.69132182 27.222653 0.1875 21.875 C-0.39644531 21.19179687 -0.98039062 20.50859375 -1.58203125 19.8046875 C-3.90659857 16.84614727 -4.11535354 15.07474801 -4.0625 11.375 C-4.05347656 10.55773437 -4.04445313 9.74046875 -4.03515625 8.8984375 C-4.02355469 8.27195312 -4.01195313 7.64546875 -4 7 C-3.34 6.67 -2.68 6.34 -2 6 C-1.27306096 4.02111039 -0.60183749 2.02045442 0 0 Z " fill="#281212" transform="translate(34,116)"/>
<path d="M0 0 C0.99 0.33 1.98 0.66 3 1 C3.50657287 6.31901517 2.32610043 8.86484812 -1 13 C-6.71517634 18.42209038 -12.58657329 18.32880576 -20.171875 18.30078125 C-23.78170062 17.91686333 -25.6227476 16.71685988 -28 14 C-26.92598892 11.08482708 -26.22189824 9.22189824 -24 7 C-21.53831437 6.74363511 -19.15516887 6.57998164 -16.6875 6.5 C-10.66570272 6.26408238 -6.23159715 6.05065684 -1.6875 1.875 C-1.130625 1.25625 -0.57375 0.6375 0 0 Z " fill="#693319" transform="translate(203,160)"/>
<path d="M0 0 C-0.12858209 6.81485102 -2.41821814 10.52954269 -6.2109375 16.1015625 C-8.90801689 20.47106667 -10.4794677 25.11729689 -12 30 C-13.32 29.67 -14.64 29.34 -16 29 C-18.22891102 22.59188082 -19.78355792 15.87133475 -16.83203125 9.46484375 C-12.30898075 2.31400556 -8.70587561 -0.51211033 0 0 Z " fill="#3D201D" transform="translate(181,134)"/>
<path d="M0 0 C-0.103125 1.0725 -0.20625 2.145 -0.3125 3.25 C-0.36827731 7.00234572 -0.36827731 7.00234572 1.875 9.1875 C13.34044916 15.83746052 25.03170941 17.27983442 38.0625 18.125 C39.93325195 18.25455078 39.93325195 18.25455078 41.84179688 18.38671875 C44.89417099 18.59722731 47.94682561 18.80149739 51 19 C51 19.66 51 20.32 51 21 C51.66 21.33 52.32 21.66 53 22 C43.39847983 26.80076008 23.22372449 22.76052317 13.46484375 20 C6.65151264 17.62198317 0.56539496 14.76079086 -4 9 C-5.1875 5.75 -5.1875 5.75 -5 3 C-3.41464922 0.73521317 -2.79754986 0 0 0 Z " fill="#96724D" transform="translate(77,164)"/>
<path d="M0 0 C0.99 0.33773437 1.98 0.67546875 3 1.0234375 C9.61895312 3.26548957 16.17323275 5.46746041 23 7 C23 7.99 23 8.98 23 10 C24.32 10.33 25.64 10.66 27 11 C26.34 11.33 25.68 11.66 25 12 C24.67 12.99 24.34 13.98 24 15 C12.45896759 15.94212509 0.88668374 11.67611961 -9 6 C-7.68 4.68 -6.36 3.36 -5 2 C-3.68 2.66 -2.36 3.32 -1 4 C-0.67 2.68 -0.34 1.36 0 0 Z " fill="#5F2C17" transform="translate(69,187)"/>
<path d="M0 0 C-1.43648424 4.30945272 -4.01692891 5.23774023 -7.85546875 7.4453125 C-16.48161362 11.71016425 -27.33158287 15.70438293 -37 16 C-37.99 15.34 -38.98 14.68 -40 14 C-40.1875 11.375 -40.1875 11.375 -40 9 C-38.92105469 8.85304687 -37.84210938 8.70609375 -36.73046875 8.5546875 C-27.19943226 7.16029439 -18.23823202 5.07161075 -9.1081543 1.98193359 C-7.97373901 1.59835693 -7.97373901 1.59835693 -6.81640625 1.20703125 C-6.15068604 0.9747583 -5.48496582 0.74248535 -4.79907227 0.50317383 C-3 0 -3 0 0 0 Z " fill="#8F5A34" transform="translate(176,186)"/>
<path d="M0 0 C3.78305809 2.80422488 6.50192132 5.68205862 9.25 9.5 C9.93578125 10.4384375 10.6215625 11.376875 11.328125 12.34375 C12.80044657 14.6829525 13.56789981 16.30572823 14 19 C11.69 19.33 9.38 19.66 7 20 C5.45428722 17.68143083 4.20381448 15.49361571 3 13 C2.34 13 1.68 13 1 13 C0.67 14.32 0.34 15.64 0 17 C-2 16 -2 16 -3 14 C-3.969375 13.360625 -4.93875 12.72125 -5.9375 12.0625 C-9 10 -9 10 -11 7 C-11 6.01 -11 5.02 -11 4 C-10.0925 4.37125 -9.185 4.7425 -8.25 5.125 C-5.15600768 6.25015129 -5.15600768 6.25015129 -2.6875 5.375 C-0.63194845 3.70010614 -0.34481187 2.58608905 0 0 Z " fill="#844A26" transform="translate(99,60)"/>
<path d="M0 0 C7.08043912 0.14750915 13.61951409 1.20718752 20.375 3.25 C21.04015625 3.44231201 21.7053125 3.63462402 22.390625 3.83276367 C27.29431355 5.3965529 30.38400908 7.45015526 34 11 C34.7636712 14.66562177 34.35261806 16.32682008 32.625 19.625 C28.89928127 22.99588837 24.70859491 24.3915296 20 26 C18.5 24.625 18.5 24.625 17 23 C17 22.34 17 21.68 17 21 C16.34 20.67 15.68 20.34 15 20 C15.69867188 19.80664062 16.39734375 19.61328125 17.1171875 19.4140625 C18.02726562 19.15367187 18.93734375 18.89328125 19.875 18.625 C20.77992188 18.36976563 21.68484375 18.11453125 22.6171875 17.8515625 C25.14569726 17.1395685 25.14569726 17.1395685 27 15 C27.30615946 12.51400388 27.30615946 12.51400388 26 10 C18.31143718 5.12071975 8.90607771 2.63581019 0 1 C0 0.67 0 0.34 0 0 Z " fill="#2C1111" transform="translate(132,112)"/>
<path d="M0 0 C7.92 0 15.84 0 24 0 C24 0.66 24 1.32 24 2 C22.62714844 2.07347656 22.62714844 2.07347656 21.2265625 2.1484375 C20.03804687 2.22320312 18.84953125 2.29796875 17.625 2.375 C15.84996094 2.47941406 15.84996094 2.47941406 14.0390625 2.5859375 C10.89437681 2.70217346 10.89437681 2.70217346 9 5 C10.98 5.66 12.96 6.32 15 7 C15 7.33 15 7.66 15 8 C13.35 8 11.7 8 10 8 C10 8.99 10 9.98 10 11 C12.97 11 15.94 11 19 11 C19 11.33 19 11.66 19 12 C9.595 12.495 9.595 12.495 0 13 C0.33 12.01 0.66 11.02 1 10 C0.38125 9.773125 -0.2375 9.54625 -0.875 9.3125 C-3.61410209 7.62070165 -4.05024472 6.00755839 -5 3 C-3.35 3 -1.7 3 0 3 C0 2.01 0 1.02 0 0 Z " fill="#603522" transform="translate(101,123)"/>
<path d="M0 0 C0.33 0.66 0.66 1.32 1 2 C0.0816217 3.70091929 -0.9113316 5.36185362 -1.9375 7 C-5.06358857 12.52686657 -5.992036 16.73213617 -5 23 C-4.14939987 25.97980201 -4.14939987 25.97980201 -3 28 C-4.32 28 -5.64 28 -7 28 C-7 27.34 -7 26.68 -7 26 C-7.66 26 -8.32 26 -9 26 C-8.67 27.32 -8.34 28.64 -8 30 C-8.66 30.33 -9.32 30.66 -10 31 C-12.48789663 26.02420674 -14.09209592 21.63080649 -13 16 C-11.6618592 12.4623864 -10.15597068 9.11552946 -8 6 C-7.01 5.67 -6.02 5.34 -5 5 C-5 4.34 -5 3.68 -5 3 C-2.5 1.375 -2.5 1.375 0 0 Z " fill="#9E7347" transform="translate(120,19)"/>
<path d="M0 0 C2.97 0.99 5.94 1.98 9 3 C9.9375 5.0625 9.9375 5.0625 10 8 C7.23058397 12.01058723 4.39083961 14.66516824 -0.375 15.8125 C-1.674375 15.9053125 -1.674375 15.9053125 -3 16 C-3.33 16.66 -3.66 17.32 -4 18 C-4 17.34 -4 16.68 -4 16 C-4.66 15.67 -5.32 15.34 -6 15 C-4.13250249 9.93107817 -2.1651417 4.94889531 0 0 Z " fill="#72381A" transform="translate(177,149)"/>
<path d="M0 0 C-0.25208691 7.05843338 -2.40338061 10.71459055 -7 16 C-8.9375 15.1875 -8.9375 15.1875 -11 14 C-11.33 13.01 -11.66 12.02 -12 11 C-12.66 10.34 -13.32 9.68 -14 9 C-14 6.625 -14 6.625 -13 4 C-8.70151806 0.2132421 -5.65125964 -0.45210077 0 0 Z " fill="#301716" transform="translate(181,134)"/>
<path d="M0 0 C1.32 0 2.64 0 4 0 C4 0.66 4 1.32 4 2 C4.55429688 2.21011719 5.10859375 2.42023437 5.6796875 2.63671875 C8.81593465 4.47939595 10.85787563 7.03073167 13.125 9.8125 C13.78822266 10.59463867 13.78822266 10.59463867 14.46484375 11.39257812 C16.98458193 14.4413852 18.76251636 17.238884 20 21 C19.34 21.66 18.68 22.32 18 23 C17.71125 22.236875 17.4225 21.47375 17.125 20.6875 C16.03730987 17.84970692 16.03730987 17.84970692 14 15 C12.68 15 11.36 15 10 15 C9.01 16.485 9.01 16.485 8 18 C6.84072025 16.46841892 5.69812453 14.92420207 4.5625 13.375 C3.60537109 12.08722656 3.60537109 12.08722656 2.62890625 10.7734375 C0.55014772 7.23406446 0 4.0737617 0 0 Z " fill="#9A6131" transform="translate(111,45)"/>
<path d="M0 0 C-1.24726689 3.22210612 -2.62157829 6.36141053 -4.0625 9.5 C-5.47921307 12.65468822 -6.55387471 15.54252898 -7 19 C-7.33 19 -7.66 19 -8 19 C-8.33 17.35 -8.66 15.7 -9 14 C-9.66 14.66 -10.32 15.32 -11 16 C-12.32 16 -13.64 16 -15 16 C-15.33 19.96 -15.66 23.92 -16 28 C-18 26 -18 26 -18.375 22.4375 C-18.16058816 16.19698709 -16.10611485 11.2505776 -11.8359375 6.6875 C-4.50357143 0 -4.50357143 0 0 0 Z " fill="#916947" transform="translate(103,32)"/>
<path d="M0 0 C0.99 0.33 1.98 0.66 3 1 C3.50657287 6.31901517 2.32610043 8.86484812 -1 13 C-3.75 15.375 -3.75 15.375 -6 17 C-8.475 16.01 -8.475 16.01 -11 15 C-11.125 11.625 -11.125 11.625 -11 8 C-9 6 -9 6 -6.625 5.125 C-3.69882485 3.87092493 -2.11260516 2.34733907 0 0 Z " fill="#824A28" transform="translate(203,160)"/>
<path d="M0 0 C1.89693861 0.28438952 3.79252027 0.57783792 5.6875 0.875 C6.74324219 1.03742188 7.79898438 1.19984375 8.88671875 1.3671875 C11.79794914 1.95893069 14.28955607 2.8031806 17 4 C17 4.99 17 5.98 17 7 C-5.81254737 9.03100581 -5.81254737 9.03100581 -11 6 C-7.535 5.505 -7.535 5.505 -4 5 C-4.33 4.01 -4.66 3.02 -5 2 C-3.35 2 -1.7 2 0 2 C0 1.34 0 0.68 0 0 Z " fill="#7D3D1C" transform="translate(129,124)"/>
<path d="M0 0 C1.9765625 1.234375 1.9765625 1.234375 4 3 C5.23109677 8.3834401 3.73853132 13.89306424 2 19 C1.46375 18.54625 0.9275 18.0925 0.375 17.625 C-2.31698302 15.78311688 -4.88520388 14.92028067 -8 14 C-6.6744419 10.37723685 -5.05653045 7.36494652 -2.875 4.1875 C-2.33617187 3.39730469 -1.79734375 2.60710937 -1.2421875 1.79296875 C-0.83226562 1.20128906 -0.42234375 0.60960937 0 0 Z " fill="#3B201B" transform="translate(186,136)"/>
<path d="M0 0 C6.93 2.475 6.93 2.475 14 5 C10.41220825 5.89694794 7.65381163 6.08304117 4 6 C6.35953094 8.35953094 7.77895617 8.49141413 11 9 C10.34 10.32 9.68 11.64 9 13 C2.38223191 11.42035192 -3.26239061 9.69757049 -9 6 C-7.68 4.68 -6.36 3.36 -5 2 C-3.68 2.66 -2.36 3.32 -1 4 C-0.67 2.68 -0.34 1.36 0 0 Z " fill="#4E251A" transform="translate(69,187)"/>
<path d="M0 0 C-0.9530637 2.35318306 -1.60175888 3.73480356 -3.7421875 5.16015625 C-20.15553299 12.10426396 -20.15553299 12.10426396 -28 10 C-28 9.34 -28 8.68 -28 8 C-33.28 8 -38.56 8 -44 8 C-44 7.67 -44 7.34 -44 7 C-42.8140625 6.96261719 -41.628125 6.92523438 -40.40625 6.88671875 C-26.99424002 6.37687292 -12.44666425 0 0 0 Z " fill="#C8AC95" transform="translate(156,175)"/>
<path d="M0 0 C1.32 0.33 2.64 0.66 4 1 C4 1.66 4 2.32 4 3 C5.32 3.66 6.64 4.32 8 5 C5.8131784 5.48225331 3.62550745 5.96065583 1.4375 6.4375 C0.21933594 6.70433594 -0.99882812 6.97117188 -2.25390625 7.24609375 C-10.57497251 8.92071918 -18.47020199 9.12022149 -26.9375 9.0625 C-28.19369141 9.05798828 -29.44988281 9.05347656 -30.74414062 9.04882812 C-33.82947663 9.03709681 -36.91471316 9.020681 -40 9 C-40 8.67 -40 8.34 -40 8 C-38.82824219 7.96261719 -37.65648438 7.92523438 -36.44921875 7.88671875 C-28.49086579 7.57367832 -21.30808209 7.08055282 -13.6796875 4.6328125 C-8.532099 3.41720122 -3.2536562 3.77448535 2 4 C2 3.01 2 2.02 2 1 C1.34 0.67 0.68 0.34 0 0 Z " fill="#E4D3C1" transform="translate(144,127)"/>
<path d="M0 0 C1.65 0.33 3.3 0.66 5 1 C5.34210402 6.70173361 5.49164428 11.19898911 2 16 C-0.50823795 17.98504721 -3.05119774 19.74159394 -6 21 C-6.66 20.67 -7.32 20.34 -8 20 C-7.401875 19.360625 -6.80375 18.72125 -6.1875 18.0625 C-2.34061902 12.67686663 -0.83648039 6.52454704 0 0 Z " fill="#763E1A" transform="translate(129,74)"/>
<path d="M0 0 C-1.67432525 5.02297574 -6.43460332 6.71417895 -11 9 C-14.29192318 10.20273242 -17.5950697 11.17412329 -21 12 C-22 11 -22 11 -22.0625 8.4375 C-22.041875 7.633125 -22.02125 6.82875 -22 6 C-18.8980736 4.9929564 -15.79311902 3.99559195 -12.6875 3 C-11.80642578 2.71382812 -10.92535156 2.42765625 -10.01757812 2.1328125 C-8.74624023 1.72675781 -8.74624023 1.72675781 -7.44921875 1.3125 C-6.27879028 0.93544922 -6.27879028 0.93544922 -5.0847168 0.55078125 C-3 0 -3 0 0 0 Z " fill="#9E6F45" transform="translate(176,186)"/>
<path d="M0 0 C0.80050781 0.47566406 1.60101563 0.95132813 2.42578125 1.44140625 C3.23402344 1.91449219 4.04226562 2.38757813 4.875 2.875 C5.48988281 3.24753906 6.10476562 3.62007812 6.73828125 4.00390625 C6.42578125 5.94140625 6.42578125 5.94140625 5.73828125 8.00390625 C4.74828125 8.33390625 3.75828125 8.66390625 2.73828125 9.00390625 C2.07828125 8.34390625 1.41828125 7.68390625 0.73828125 7.00390625 C0.73828125 7.66390625 0.73828125 8.32390625 0.73828125 9.00390625 C-1.92527109 9.39560512 -3.65396248 9.40955154 -5.9296875 7.890625 C-7.41280755 6.64001308 -8.84126227 5.32526111 -10.26171875 4.00390625 C-9.93171875 2.68390625 -9.60171875 1.36390625 -9.26171875 0.00390625 C-8.60171875 0.00390625 -7.94171875 0.00390625 -7.26171875 0.00390625 C-6.93171875 0.66390625 -6.60171875 1.32390625 -6.26171875 2.00390625 C-5.93171875 1.34390625 -5.60171875 0.68390625 -5.26171875 0.00390625 C-2.26171875 -0.99609375 -2.26171875 -0.99609375 0 0 Z " fill="#3E2119" transform="translate(62.26171875,182.99609375)"/>
<path d="M0 0 C0.61875 0.185625 1.2375 0.37125 1.875 0.5625 C4.04160178 1.23686176 4.04160178 1.23686176 6 0 C6.66 0.33 7.32 0.66 8 1 C7.54713369 5.86831281 6.41678531 8.48559226 3 12 C-0.05975443 14.00796384 -1.14485886 14 -5 14 C-4.731875 13.360625 -4.46375 12.72125 -4.1875 12.0625 C-2.64635858 8.08797739 -1.32390688 4.05115505 0 0 Z " fill="#4B2617" transform="translate(106,95)"/>
<path d="M0 0 C1.32 1.32 2.64 2.64 4 4 C3.01 5.485 3.01 5.485 2 7 C1.60612212 9.32387947 1.26513915 11.65793749 1 14 C-0.32 14.33 -1.64 14.66 -3 15 C-3 14.01 -3 13.02 -3 12 C-3.66 12.99 -4.32 13.98 -5 15 C-6.43755697 7.05013674 -6.43755697 7.05013674 -4.75 3 C-3 1 -3 1 0 0 Z " fill="#FBFCFC" transform="translate(122,78)"/>
<path d="M0 0 C0.6875 1.5625 0.6875 1.5625 1 4 C0.24793046 5.70033113 -0.50622262 7.39985348 -1.28125 9.08984375 C-3.71901002 15.56845599 -1.53685788 20.9277424 1.125 26.8984375 C2 29 2 29 2 31 C-0.80144866 30.71019497 -1.79412539 30.24874438 -3.61328125 28.05078125 C-5.55318298 23.78299745 -5.43816254 20.00691964 -5.375 15.375 C-5.38660156 14.51648437 -5.39820312 13.65796875 -5.41015625 12.7734375 C-5.40628906 11.9484375 -5.40242188 11.1234375 -5.3984375 10.2734375 C-5.39505371 9.52497559 -5.39166992 8.77651367 -5.38818359 8.00537109 C-4.89771004 5.47156619 -4.02245856 4.55834845 -2 3 C-1.34 3 -0.68 3 0 3 C0 2.01 0 1.02 0 0 Z " fill="#FEF8ED" transform="translate(88,39)"/>
<path d="M0 0 C1.65 0.33 3.3 0.66 5 1 C4.01 1.495 4.01 1.495 3 2 C3 2.66 3 3.32 3 4 C3.99 4.33 4.98 4.66 6 5 C5.855625 5.61875 5.71125 6.2375 5.5625 6.875 C4.77943337 11.22537017 4.40153341 15.60021907 4 20 C3.53980469 19.37609375 3.07960938 18.7521875 2.60546875 18.109375 C1.1778897 16.23372369 -0.29671221 14.62217884 -2 13 C-0.92598892 10.08482708 -0.22189824 8.22189824 2 6 C2 5.34 2 4.68 2 4 C0.03243548 4.03122943 0.03243548 4.03122943 -2 5 C-3.3045656 7.99615946 -3.3045656 7.99615946 -4 11 C-4.66 11 -5.32 11 -6 11 C-5.55530671 5.96014269 -3.28656638 3.62365012 0 0 Z " fill="#3B2423" transform="translate(36,112)"/>
<path d="M0 0 C2.62901288 1.52206009 4.84365964 2.84365964 7 5 C7 6.32 7 7.64 7 9 C7.66 9 8.32 9 9 9 C9 9.66 9 10.32 9 11 C9.99 11.33 10.98 11.66 12 12 C11.34 12 10.68 12 10 12 C10 12.66 10 13.32 10 14 C5.51578931 12.74859237 2.31613466 11.31613466 -1 8 C-1.9375 5.4375 -1.9375 5.4375 -2 3 C-1.34 2.01 -0.68 1.02 0 0 Z " fill="#2E1416" transform="translate(38,133)"/>
<path d="M0 0 C0 0.33 0 0.66 0 1 C-2.31 1.33 -4.62 1.66 -7 2 C-7 2.66 -7 3.32 -7 4 C-5.68 4.66 -4.36 5.32 -3 6 C-11.58 6 -20.16 6 -29 6 C-29 5.67 -29 5.34 -29 5 C-24.38 4.67 -19.76 4.34 -15 4 C-15 3.67 -15 3.34 -15 3 C-18.3 2.67 -21.6 2.34 -25 2 C-25 1.67 -25 1.34 -25 1 C-16.64251778 0.15672251 -8.39802254 -0.12190678 0 0 Z " fill="#200A09" transform="translate(133,136)"/>
<path d="M0 0 C0.33 0.66 0.66 1.32 1 2 C-0.37480017 4.78601889 -1.96856999 7.40754575 -3.5546875 10.078125 C-5.05492261 13.11103274 -5.61411059 15.65562509 -6 19 C-6.433125 18.525625 -6.86625 18.05125 -7.3125 17.5625 C-9.02309613 15.76313043 -9.02309613 15.76313043 -12 15 C-10.85569823 11.12697862 -9.76679902 7.99736561 -7 5 C-6.34 5 -5.68 5 -5 5 C-5 4.34 -5 3.68 -5 3 C-2.5 1.375 -2.5 1.375 0 0 Z " fill="#BEA48D" transform="translate(120,19)"/>
<path d="M0 0 C6.93 0.33 13.86 0.66 21 1 C21 1.66 21 2.32 21 3 C21.66 3.33 22.32 3.66 23 4 C20.65147472 5.17426264 19.26225935 5.11508173 16.6484375 5.09765625 C15.79765625 5.09443359 14.946875 5.09121094 14.0703125 5.08789062 C13.18085937 5.07951172 12.29140625 5.07113281 11.375 5.0625 C10.4778125 5.05798828 9.580625 5.05347656 8.65625 5.04882812 C6.43743352 5.03702591 4.21874982 5.02056155 2 5 C2.99 4.67 3.98 4.34 5 4 C5 3.34 5 2.68 5 2 C3.35 2 1.7 2 0 2 C0 1.34 0 0.68 0 0 Z " fill="#AD8565" transform="translate(107,182)"/>
<path d="M0 0 C0.66 0.33 1.32 0.66 2 1 C2 3.64 2 6.28 2 9 C-0.3260857 9.38063221 -2.66055264 9.71269945 -5 10 C-5.33 9.67 -5.66 9.34 -6 9 C-6.66 10.32 -7.32 11.64 -8 13 C-8 9.04 -8 5.08 -8 1 C-6.68 1 -5.36 1 -4 1 C-4 1.99 -4 2.98 -4 4 C-2.68 4 -1.36 4 0 4 C0 2.68 0 1.36 0 0 Z " fill="#633220" transform="translate(113,87)"/>
<path d="M0 0 C0.66 0.33 1.32 0.66 2 1 C1.38511719 1.38671875 0.77023438 1.7734375 0.13671875 2.171875 C-0.67152344 2.69265625 -1.47976562 3.2134375 -2.3125 3.75 C-3.11300781 4.26046875 -3.91351563 4.7709375 -4.73828125 5.296875 C-7.96859937 7.72937707 -9.70369443 9.81477773 -10.6875 13.75 C-10.790625 14.4925 -10.89375 15.235 -11 16 C-11.99 15.67 -12.98 15.34 -14 15 C-14.33 15.66 -14.66 16.32 -15 17 C-15.66 15.68 -16.32 14.36 -17 13 C-12.34778435 6.79191091 -7.46668339 2.49799463 0 0 Z " fill="#231112" transform="translate(65,157)"/>
<path d="M0 0 C0.99 0.33 1.98 0.66 3 1 C1.89078738 4.22680034 0.45502712 6.87721123 -1.4375 9.6875 C-3.98142637 13.60813946 -5.20083364 17.48187752 -6.32421875 21.99609375 C-7 24 -7 24 -9 25 C-9.66 24.34 -10.32 23.68 -11 23 C-8.38386035 15.59688142 -5.84847219 9.19527002 -1 3 C-0.67 2.01 -0.34 1.02 0 0 Z " fill="#F3E2D2" transform="translate(180,139)"/>
<path d="M0 0 C0 0.33 0 0.66 0 1 C-0.92897095 1.14248169 -0.92897095 1.14248169 -1.87670898 1.2878418 C-4.73344276 1.73649465 -7.5851497 2.21180452 -10.4375 2.6875 C-11.41138672 2.83638672 -12.38527344 2.98527344 -13.38867188 3.13867188 C-19.38471203 4.16140782 -23.99940518 5.71192314 -29.14477539 8.98754883 C-31 10 -31 10 -34 10 C-34 9.01 -34 8.02 -34 7 C-23.3566645 1.45307647 -11.9414994 -0.65800099 0 0 Z " fill="#4B4040" transform="translate(104,111)"/>
<path d="M0 0 C3.95827235 -0.05785647 7.9164367 -0.09354717 11.875 -0.125 C13.00292969 -0.14175781 14.13085938 -0.15851563 15.29296875 -0.17578125 C16.36933594 -0.18222656 17.44570312 -0.18867188 18.5546875 -0.1953125 C19.54968262 -0.20578613 20.54467773 -0.21625977 21.56982422 -0.22705078 C24 0 24 0 26 2 C25.34 2 24.68 2 24 2 C24 2.66 24 3.32 24 4 C24.99 4.33 25.98 4.66 27 5 C27 5.33 27 5.66 27 6 C20.25 7.125 20.25 7.125 18 6 C18 5.34 18 4.68 18 4 C17.34 4 16.68 4 16 4 C16 3.01 16 2.02 16 1 C15.030625 1.185625 14.06125 1.37125 13.0625 1.5625 C8.61586794 2.21856047 4.41915017 1.65134866 0 1 C0 0.67 0 0.34 0 0 Z " fill="#844D29" transform="translate(112,196)"/>
<path d="M0 0 C0.99 0.33 1.98 0.66 3 1 C2.896875 1.7425 2.79375 2.485 2.6875 3.25 C2.72146777 6.22220018 2.72146777 6.22220018 5.375 8.1875 C6.24125 8.785625 7.1075 9.38375 8 10 C8.66 10.66 9.32 11.32 10 12 C9.01 13.485 9.01 13.485 8 15 C4.19804378 14.4568634 2.49869657 12.84334437 0 10 C-1.49106457 7.01787087 -1.11941467 4.28390342 -1 1 C-0.67 0.67 -0.34 0.34 0 0 Z " fill="#251513" transform="translate(68,120)"/>
<path d="M0 0 C0.928125 0.350625 1.85625 0.70125 2.8125 1.0625 C5.9802953 2.32382628 5.9802953 2.32382628 9 1 C11.56616632 4.84924948 11.55097676 7.4349304 12 12 C11.01 12 10.02 12 9 12 C8.67 11.34 8.34 10.68 8 10 C7.030625 9.360625 6.06125 8.72125 5.0625 8.0625 C2 6 2 6 0 3 C0 2.01 0 1.02 0 0 Z " fill="#84411F" transform="translate(88,64)"/>
<path d="M0 0 C0.66 0 1.32 0 2 0 C2 0.66 2 1.32 2 2 C2.99 2.33 3.98 2.66 5 3 C5.33333333 4.33333333 5.66666667 5.66666667 6 7 C6.99 7.33 7.98 7.66 9 8 C9.33 8.66 9.66 9.32 10 10 C2.73846154 10.49230769 2.73846154 10.49230769 -1 8 C-1.66 7.34 -2.32 6.68 -3 6 C-1.125 1.125 -1.125 1.125 0 0 Z " fill="#3E1C15" transform="translate(178,168)"/>
<path d="M0 0 C0 0.66 0 1.32 0 2 C0.99 2.33 1.98 2.66 3 3 C3 3.66 3 4.32 3 5 C-1.53701494 6.45184478 -5.18061476 7.23509196 -10 7 C-9.01 6.34 -8.02 5.68 -7 5 C-9.64 4.34 -12.28 3.68 -15 3 C-10.25420243 0.26203987 -5.40112241 -0.15885654 0 0 Z " fill="#25100E" transform="translate(149,133)"/>
<path d="M0 0 C7.21611489 0.15033573 13.76693867 1.28581432 20.625 3.4375 C21.32367188 3.65494873 22.02234375 3.87239746 22.7421875 4.09643555 C25.72179096 5.07191842 27.75367433 5.75367433 30 8 C30 8.99 30 9.98 30 11 C27.11536569 10.3751011 25.25494823 9.60715452 22.5625 8.1875 C15.55561268 4.57868961 7.73256281 2.42026664 0 1 C0 0.67 0 0.34 0 0 Z " fill="#3B2F30" transform="translate(132,112)"/>
<path d="M0 0 C1.75570312 0.04060547 1.75570312 0.04060547 3.546875 0.08203125 C4.43890625 0.11683594 5.3309375 0.15164062 6.25 0.1875 C6.58 1.1775 6.91 2.1675 7.25 3.1875 C4.81085508 5.62664492 4.03553569 5.47412523 0.6796875 5.6015625 C-0.66416016 5.65957031 -0.66416016 5.65957031 -2.03515625 5.71875 C-2.97230469 5.7496875 -3.90945312 5.780625 -4.875 5.8125 C-5.81988281 5.85117188 -6.76476562 5.88984375 -7.73828125 5.9296875 C-10.07532375 6.02411346 -12.41235501 6.10968394 -14.75 6.1875 C-13.41666667 5.1875 -12.08333333 4.1875 -10.75 3.1875 C-10.14671875 2.63449219 -9.5434375 2.08148438 -8.921875 1.51171875 C-5.87831724 -0.34397564 -3.5289051 -0.10586715 0 0 Z " fill="#371E1F" transform="translate(113.75,135.8125)"/>
<path d="M0 0 C0.99 1.32 1.98 2.64 3 4 C-4.18549925 11.18549925 -7.57467724 12.12350121 -17.59960938 12.51757812 C-21.2230015 12.70828297 -22.90687862 12.93791908 -26 15 C-25.625 13.0625 -25.625 13.0625 -25 11 C-21.47008922 9.23504461 -17.03732526 9.75327349 -13.1171875 9.74609375 C-7.47529028 9.54684459 -4.95068678 8.04185648 -1 4 C-0.05563651 1.83468832 -0.05563651 1.83468832 0 0 Z " fill="#E7CEC1" transform="translate(202,155)"/>
<path d="M0 0 C3.9252025 3.70090521 6.94580156 7.54959656 10 12 C9.01 12.66 8.02 13.32 7 14 C6.68154449 17.10494126 7.00575359 19.01726077 8 22 C8.66 22.33 9.32 22.66 10 23 C10 23.66 10 24.32 10 25 C7.53199953 23.84826645 5.95216435 22.95216435 4 21 C3.8046875 18.94140625 3.8046875 18.94140625 3.875 16.5625 C3.89304687 15.78003906 3.91109375 14.99757812 3.9296875 14.19140625 C3.95289062 13.46824219 3.97609375 12.74507812 4 12 C4 11.01 4 10.02 4 9 C4 8.34 4 7.68 4 7 C3.01 7 2.02 7 1 7 C0.67 4.69 0.34 2.38 0 0 Z " fill="#E6DED9" transform="translate(72,150)"/>
<path d="M0 0 C0 0.66 0 1.32 0 2 C1.65 2 3.3 2 5 2 C5 2.66 5 3.32 5 4 C-3.50922528 4.40735653 -10.8390222 3.43092956 -19 1 C-12.3659415 -0.73574036 -6.70769886 -1.25769354 0 0 Z " fill="#A57850" transform="translate(107,182)"/>
<path d="M0 0 C0.33 0.66 0.66 1.32 1 2 C3.12576782 2.46651207 3.12576782 2.46651207 5.5625 2.625 C6.38878906 2.69976562 7.21507812 2.77453125 8.06640625 2.8515625 C8.70449219 2.90054688 9.34257812 2.94953125 10 3 C6.77862595 7.83206107 6.77862595 7.83206107 2.8125 8.6875 C1.4203125 8.8421875 1.4203125 8.8421875 0 9 C-0.33 9.66 -0.66 10.32 -1 11 C-1 10.34 -1 9.68 -1 9 C-1.66 8.67 -2.32 8.34 -3 8 C-2.01 5.36 -1.02 2.72 0 0 Z " fill="#99653F" transform="translate(174,156)"/>
<path d="M0 0 C0.66 0.99 1.32 1.98 2 3 C1.01 4.32 0.02 5.64 -1 7 C-1 6.34 -1 5.68 -1 5 C-1.70125 5.45375 -2.4025 5.9075 -3.125 6.375 C-6 8 -6 8 -8.875 8.875 C-12.87280522 10.31420988 -15.62209919 12.43279539 -19 15 C-19.33 14.01 -19.66 13.02 -20 12 C-19.401875 11.566875 -18.80375 11.13375 -18.1875 10.6875 C-16.03271498 9.13755313 -16.03271498 9.13755313 -14.6484375 7.45703125 C-12.09687752 5.20174246 -9.34067938 5.1423731 -6.05859375 4.625 C-3.62388685 4.12376708 -3.62388685 4.12376708 -2 1 C-1.34 1.33 -0.68 1.66 0 2 C0 1.34 0 0.68 0 0 Z " fill="#F7F1E6" transform="translate(109,25)"/>
<path d="M0 0 C3.96 0.33 7.92 0.66 12 1 C12 1.33 12 1.66 12 2 C3.96428571 4.27678571 3.96428571 4.27678571 0 3 C0 2.01 0 1.02 0 0 Z M-1 4 C1.375 3.875 1.375 3.875 4 4 C4.66 4.66 5.32 5.32 6 6 C7.98821313 6.39764263 9.98944339 6.73775349 12 7 C12 7.66 12 8.32 12 9 C7.71 9 3.42 9 -1 9 C-0.01 7.68 0.98 6.36 2 5 C1.01 4.67 0.02 4.34 -1 4 Z " fill="#6F371B" transform="translate(92,194)"/>
<path d="M0 0 C0.98484375 0.11085937 1.9696875 0.22171875 2.984375 0.3359375 C3.73203125 0.43132812 4.4796875 0.52671875 5.25 0.625 C2.5 4.5 2.5 4.5 0.25 5.625 C-8.14097744 6.03101504 -8.14097744 6.03101504 -11.75 3.625 C-7.95294637 -0.17205363 -5.28807852 -0.62953316 0 0 Z " fill="#29100D" transform="translate(101.75,135.375)"/>
<path d="M0 0 C2.39489543 0.74324341 3.70777616 1.47057354 4.93359375 3.69140625 C5.67219923 5.44073501 6.34049685 7.21934149 7 9 C4.69 9.33 2.38 9.66 0 10 C-2 7 -2 7 -3 4 C-1.5625 1.8125 -1.5625 1.8125 0 0 Z " fill="#804221" transform="translate(106,70)"/>
<path d="M0 0 C0.33 3.96 0.66 7.92 1 12 C-0.32 11.01 -1.64 10.02 -3 9 C-4.98014432 8.27648573 -6.97821315 7.59734611 -9 7 C-8.375 4.625 -8.375 4.625 -7 2 C-2.33333333 0 -2.33333333 0 0 0 Z " fill="#522517" transform="translate(187,143)"/>
<path d="M0 0 C1.875 0.125 1.875 0.125 4 1 C6.07190488 5.35100024 6.19055047 9.23623816 6 14 C3.525 13.01 3.525 13.01 1 12 C1.04125 11.2575 1.0825 10.515 1.125 9.75 C1.18720445 7.01480713 1.18720445 7.01480713 -0.0625 4.875 C-0.371875 4.25625 -0.68125 3.6375 -1 3 C-0.67 2.01 -0.34 1.02 0 0 Z " fill="#FAFDFD" transform="translate(101,38)"/>
<path d="M0 0 C0.33 0 0.66 0 1 0 C1.309375 0.969375 1.61875 1.93875 1.9375 2.9375 C2.69523342 5.84065792 2.69523342 5.84065792 4 7 C4.38235426 13.39881105 3.95477011 19.67464804 3 26 C1.35 26.66 -0.3 27.32 -2 28 C-1.505 27.0925 -1.01 26.185 -0.5 25.25 C2.83714491 17.45278464 1.22842468 8.8737672 -1 1 C-0.67 0.67 -0.34 0.34 0 0 Z " fill="#FCF2E7" transform="translate(132,63)"/>
<path d="M0 0 C1.35158203 0.43119141 1.35158203 0.43119141 2.73046875 0.87109375 C3.76107422 1.21333984 3.76107422 1.21333984 4.8125 1.5625 C4.8125 2.5525 4.8125 3.5425 4.8125 4.5625 C0.1925 4.8925 -4.4275 5.2225 -9.1875 5.5625 C-9.1875 4.9025 -9.1875 4.2425 -9.1875 3.5625 C-7.8675 3.5625 -6.5475 3.5625 -5.1875 3.5625 C-6.1775 2.2425 -7.1675 0.9225 -8.1875 -0.4375 C-4.63507118 -1.62164294 -3.48919438 -1.13285532 0 0 Z " fill="#8E613C" transform="translate(141.1875,126.4375)"/>
<path d="M0 0 C1.41623216 -0.05447047 2.83308191 -0.09300508 4.25 -0.125 C5.03890625 -0.14820312 5.8278125 -0.17140625 6.640625 -0.1953125 C9.23757997 0.01966722 10.75929845 0.70874826 13 2 C13.7425 2.37125 14.485 2.7425 15.25 3.125 C15.8275 3.41375 16.405 3.7025 17 4 C15.25 6 15.25 6 13 8 C11.68 8 10.36 8 9 8 C9 7.01 9 6.02 9 5 C7.68 4.67 6.36 4.34 5 4 C5 3.01 5 2.02 5 1 C3.35 1 1.7 1 0 1 C0 0.67 0 0.34 0 0 Z " fill="#E8E7E5" transform="translate(124,111)"/>
<path d="M0 0 C0.66 0 1.32 0 2 0 C2.66 0.99 3.32 1.98 4 3 C4.66 3.33 5.32 3.66 6 4 C3.1524798 8.05224029 0.63339243 10.1869334 -4 12 C-4.66 11.67 -5.32 11.34 -6 11 C-5.38125 10.29875 -4.7625 9.5975 -4.125 8.875 C-1.9572991 5.94222819 -0.97344445 3.48817594 0 0 Z " fill="#6B4431" transform="translate(127,83)"/>
<path d="M0 0 C0.33 1.65 0.66 3.3 1 5 C-4.33835539 6.92471317 -9.34979382 8.39891424 -15 9 C-15.33 8.34 -15.66 7.68 -16 7 C-11.71 6.01 -7.42 5.02 -3 4 C-5.31 3.34 -7.62 2.68 -10 2 C-10 1.67 -10 1.34 -10 1 C-6.59437148 0.22157062 -3.49234244 -0.09978121 0 0 Z " fill="#8E6140" transform="translate(154,193)"/>
<path d="M0 0 C-0.875 4.75 -0.875 4.75 -2 7 C-1.34 7.33 -0.68 7.66 0 8 C0.33 8.99 0.66 9.98 1 11 C0.01 11.495 0.01 11.495 -1 12 C-3.28015185 9.82842681 -5.36317336 7.70076396 -7 5 C-6.8125 2.8125 -6.8125 2.8125 -6 1 C-4 0 -4 0 0 0 Z " fill="#2C1010" transform="translate(174,138)"/>
<path d="M0 0 C-1.44950455 3.7910119 -3.15172566 7.3874638 -5 11 C-5.433125 10.525625 -5.86625 10.05125 -6.3125 9.5625 C-8.02309613 7.76313043 -8.02309613 7.76313043 -11 7 C-4.36842105 0 -4.36842105 0 0 0 Z " fill="#A58869" transform="translate(103,32)"/>
<path d="M0 0 C1.18519265 2.43276386 2 4.28017286 2 7 C-0.33333333 7 -2.66666667 7 -5 7 C-5 6.34 -5 5.68 -5 5 C-5.66 4.67 -6.32 4.34 -7 4 C-7 2.68 -7 1.36 -7 0 C-3.98968256 -0.93423645 -3.13349732 -1.04449911 0 0 Z " fill="#F3F3F6" transform="translate(94,114)"/>
<path d="M0 0 C-0.99774172 2.55872472 -1.64338111 3.78313716 -4.0234375 5.23046875 C-4.79945313 5.54628906 -5.57546875 5.86210937 -6.375 6.1875 C-7.14585937 6.51105469 -7.91671875 6.83460938 -8.7109375 7.16796875 C-10.79519401 7.92555687 -12.83877392 8.51150369 -15 9 C-14.67 7.35 -14.34 5.7 -14 4 C-13.30132812 3.79503906 -12.60265625 3.59007812 -11.8828125 3.37890625 C-10.97273437 3.10949219 -10.06265625 2.84007812 -9.125 2.5625 C-8.22007812 2.29566406 -7.31515625 2.02882812 -6.3828125 1.75390625 C-0.83937824 0 -0.83937824 0 0 0 Z " fill="#D1C7BF" transform="translate(156,175)"/>
<path d="M0 0 C0.80824219 0.10183594 1.61648437 0.20367187 2.44921875 0.30859375 C3.06410156 0.39238281 3.67898437 0.47617188 4.3125 0.5625 C1.13486695 2.68092204 -2.03253919 4.06971672 -5.53125 5.5625 C-7.90304255 6.59558442 -7.90304255 6.59558442 -10.6875 8.5625 C-10.3575 6.9125 -10.0275 5.2625 -9.6875 3.5625 C-9.0275 3.5625 -8.3675 3.5625 -7.6875 3.5625 C-7.6875 2.5725 -7.6875 1.5825 -7.6875 0.5625 C-4.59271121 -0.46909626 -3.16118607 -0.41232862 0 0 Z " fill="#F1ECEC" transform="translate(77.6875,112.4375)"/>
<path d="M0 0 C1.32 1.32 2.64 2.64 4 4 C4.33 3.34 4.66 2.68 5 2 C8.93846154 6.30769231 8.93846154 6.30769231 9.25 9.8125 C9.1675 10.534375 9.085 11.25625 9 12 C5.125 10.25 5.125 10.25 4 8 C1.97536745 7.34786708 1.97536745 7.34786708 0 7 C0 4.69 0 2.38 0 0 Z " fill="#935325" transform="translate(120,57)"/>
<path d="M0 0 C2.64 0.99 5.28 1.98 8 3 C6.68 3.33 5.36 3.66 4 4 C4.7763932 7.0745356 4.7763932 7.0745356 7 9 C4 10 4 10 0.8125 8.5625 C-0.115625 8.046875 -1.04375 7.53125 -2 7 C-1.34 4.69 -0.68 2.38 0 0 Z " fill="#311D1C" transform="translate(93,162)"/>
<path d="M0 0 C1.65 0.33 3.3 0.66 5 1 C4.01 3.97 3.02 6.94 2 10 C0.68 9.67 -0.64 9.34 -2 9 C-2 7.35 -2 5.7 -2 4 C-1.34 4 -0.68 4 0 4 C0 2.68 0 1.36 0 0 Z " fill="#492319" transform="translate(167,154)"/>
<path d="M0 0 C0.33 0.99 0.66 1.98 1 3 C-0.65 2.67 -2.3 2.34 -4 2 C-2.68 3.32 -1.36 4.64 0 6 C-1.051875 5.938125 -2.10375 5.87625 -3.1875 5.8125 C-7.15816493 6.0077786 -8.84196969 6.70325068 -12 9 C-11.7153924 5.58470886 -11.20339329 4.21501576 -8.8125 1.6875 C-5.57283878 -0.25629673 -3.71198163 -0.34530062 0 0 Z " fill="#240D0A" transform="translate(52,112)"/>
<path d="M0 0 C1.32 0 2.64 0 4 0 C4.66 1.32 5.32 2.64 6 4 C4.7625 5.299375 4.7625 5.299375 3.5 6.625 C1.34134101 9.17890641 1.0123706 9.86639751 0.6875 13.375 C0.790625 14.24125 0.89375 15.1075 1 16 C0.01 15.34 -0.98 14.68 -2 14 C-1.75 10.625 -1.75 10.625 -1 7 C1.0625 5.5625 1.0625 5.5625 3 5 C3 4.01 3 3.02 3 2 C1.68 2.33 0.36 2.66 -1 3 C-0.67 2.01 -0.34 1.02 0 0 Z " fill="#F9FAF8" transform="translate(72,157)"/>
<path d="M0 0 C1.32 0 2.64 0 4 0 C4 0.66 4 1.32 4 2 C5.32 2.33 6.64 2.66 8 3 C6.90398831 4.00893131 5.79786082 5.00688225 4.6875 6 C3.76517578 6.8353125 3.76517578 6.8353125 2.82421875 7.6875 C1 9 1 9 -2 9 C-2 7.68 -2 6.36 -2 5 C0 3.25 0 3.25 2 2 C1.34 1.34 0.68 0.68 0 0 Z " fill="#3A211D" transform="translate(194,156)"/>
<path d="M0 0 C0.66 2.64 1.32 5.28 2 8 C0.68 8 -0.64 8 -2 8 C-2.66 8.66 -3.32 9.32 -4 10 C-7 5.25 -7 5.25 -7 3 C-1.125 0 -1.125 0 0 0 Z " fill="#2C1616" transform="translate(67,123)"/>
<path d="M0 0 C0.99 0.33 1.98 0.66 3 1 C3.36923077 6.41538462 3.36923077 6.41538462 1.5 9.375 C1.005 9.91125 0.51 10.4475 0 11 C-0.28875 10.030625 -0.5775 9.06125 -0.875 8.0625 C-1.64214682 4.89335797 -1.64214682 4.89335797 -4 4 C-2.68 2.68 -1.36 1.36 0 0 Z " fill="#996A45" transform="translate(203,160)"/>
<path d="M0 0 C1.95825873 -0.02694851 3.91662226 -0.04637218 5.875 -0.0625 C6.96554688 -0.07410156 8.05609375 -0.08570313 9.1796875 -0.09765625 C12 0 12 0 14 1 C14 1.99 14 2.98 14 4 C12.68 4 11.36 4 10 4 C10 3.34 10 2.68 10 2 C8.8553125 2.5259375 8.8553125 2.5259375 7.6875 3.0625 C5 4 5 4 2 3 C-0.14255793 3.38932856 -0.14255793 3.38932856 -2 4 C-1.34 2.68 -0.68 1.36 0 0 Z " fill="#270F0C" transform="translate(188,154)"/>
<path d="M0 0 C1.66611905 -0.042721 3.33382885 -0.04063832 5 0 C5.33 0.33 5.66 0.66 6 1 C5.91015699 2.85772162 5.75388139 4.71247985 5.5625 6.5625 C5.46066406 7.57441406 5.35882813 8.58632813 5.25390625 9.62890625 C5.17011719 10.41136719 5.08632812 11.19382812 5 12 C4.67 12 4.34 12 4 12 C3.67 10.35 3.34 8.7 3 7 C2.34 7.66 1.68 8.32 1 9 C0.29925156 5.846632 0 3.27275026 0 0 Z " fill="#9B6939" transform="translate(91,39)"/>
<path d="M0 0 C1.875 0 1.875 0 4 1 C5.75 4.5625 5.75 4.5625 7 8 C6.01 8.495 6.01 8.495 5 9 C5 8.34 5 7.68 5 7 C3.68 7 2.36 7 1 7 C0.34 7.66 -0.32 8.32 -1 9 C-1.09765625 2.84765625 -1.09765625 2.84765625 -1 1 C-0.67 0.67 -0.34 0.34 0 0 Z " fill="#A9825F" transform="translate(108,34)"/>
<path d="M0 0 C-1.16369126 3.49107379 -1.88973538 3.85222763 -4.9375 5.6875 C-5.64777344 6.12449219 -6.35804688 6.56148437 -7.08984375 7.01171875 C-9 8 -9 8 -11 8 C-10.67 6.68 -10.34 5.36 -10 4 C-10.66 3.67 -11.32 3.34 -12 3 C-10.56445975 2.49440092 -9.1264798 1.9957251 -7.6875 1.5 C-6.88699219 1.2215625 -6.08648437 0.943125 -5.26171875 0.65625 C-3 0 -3 0 0 0 Z " fill="#B2957C" transform="translate(176,186)"/>
<path d="M0 0 C1.65 0.33 3.3 0.66 5 1 C4.01 2.98 3.02 4.96 2 7 C-0.475 6.01 -0.475 6.01 -3 5 C-3.99 6.485 -3.99 6.485 -5 8 C-7 7 -7 7 -9 3 C-6.03 3 -3.06 3 0 3 C0 2.01 0 1.02 0 0 Z " fill="#371C1C" transform="translate(153,150)"/>
<path d="M0 0 C1.67542976 0.28604898 3.34385343 0.61781233 5 1 C4.43545368 2.48643845 3.84765111 3.96406016 3.25 5.4375 C2.92515625 6.26121094 2.6003125 7.08492187 2.265625 7.93359375 C1 10 1 10 -1.140625 10.78515625 C-1.75421875 10.85605469 -2.3678125 10.92695313 -3 11 C-2.69217504 9.35328588 -2.37860766 7.70764424 -2.0625 6.0625 C-1.88847656 5.14597656 -1.71445313 4.22945312 -1.53515625 3.28515625 C-1 1 -1 1 0 0 Z " fill="#F2EDED" transform="translate(162,139)"/>
<path d="M0 0 C1.485 0.99 1.485 0.99 3 2 C3.66 1.67 4.32 1.34 5 1 C5 1.99 5 2.98 5 4 C5.66 4.66 6.32 5.32 7 6 C5.6100869 8.77982621 3.81341647 8.87463341 1 10 C0.67 10.66 0.34 11.32 0 12 C-1.53166168 7.91556885 -0.63081652 4.20544343 0 0 Z " fill="#F7F1E7" transform="translate(115,88)"/>
<path d="M0 0 C1.11791081 3.35373243 1.02118796 6.52055523 0.96875 10.02734375 C1.00691792 12.43669375 1.41652105 14.66608421 2 17 C1.34 17.33 0.68 17.66 0 18 C-1.81643761 14.88610696 -2.2719038 12.59222291 -2.25 9 C-2.25515625 8.154375 -2.2603125 7.30875 -2.265625 6.4375 C-1.98531155 3.86521189 -1.2948187 2.2196892 0 0 Z " fill="#F9EDDB" transform="translate(116,28)"/>
<path d="M0 0 C-6.94257419 5.15094214 -14.88144354 4.15979378 -23 3 C-23 2.67 -23 2.34 -23 2 C-19.54315232 1.46896481 -16.08435738 0.95191093 -12.625 0.4375 C-11.64015625 0.28603516 -10.6553125 0.13457031 -9.640625 -0.02148438 C-8.22910156 -0.2293457 -8.22910156 -0.2293457 -6.7890625 -0.44140625 C-5.91975098 -0.57232666 -5.05043945 -0.70324707 -4.15478516 -0.83813477 C-2 -1 -2 -1 0 0 Z " fill="#F0DECF" transform="translate(148,201)"/>
<path d="M0 0 C0.99 0 1.98 0 3 0 C3 0.66 3 1.32 3 2 C4.32 2.33 5.64 2.66 7 3 C6.01 3.495 6.01 3.495 5 4 C4.67 4.99 4.34 5.98 4 7 C1.36 7 -1.28 7 -4 7 C-4 5 -4 5 -2.5625 3.5 C-2.046875 3.005 -1.53125 2.51 -1 2 C-0.67 1.34 -0.34 0.68 0 0 Z " fill="#67341B" transform="translate(89,195)"/>
<path d="M0 0 C0.33 0.99 0.66 1.98 1 3 C3.31 3 5.62 3 8 3 C8.33 3.99 8.66 4.98 9 6 C4.28400182 6.92470553 1.32734391 7.22923777 -3 5 C-2.01 3.35 -1.02 1.7 0 0 Z " fill="#341816" transform="translate(78,131)"/>
<path d="M0 0 C0.33 2.97 0.66 5.94 1 9 C0.34 9 -0.32 9 -1 9 C-1 9.99 -1 10.98 -1 12 C-1.99 13.485 -1.99 13.485 -3 15 C-4.0625 13.1875 -4.0625 13.1875 -5 11 C-4.67 10.01 -4.34 9.02 -4 8 C-3.34 8 -2.68 8 -2 8 C-2.99 6.68 -3.98 5.36 -5 4 C-1.125 0 -1.125 0 0 0 Z " fill="#210C09" transform="translate(39,125)"/>
<path d="M0 0 C1.32 0 2.64 0 4 0 C4.66 0.66 5.32 1.32 6 2 C8.32275177 2.40047444 10.65739357 2.7397104 13 3 C9.09971775 5.60018816 5.52565431 5.15085514 1 5 C1 4.34 1 3.68 1 3 C0.34 2.67 -0.32 2.34 -1 2 C-0.67 1.34 -0.34 0.68 0 0 Z " fill="#F3F8F9" transform="translate(129,116)"/>
<path d="M0 0 C1.32 0 2.64 0 4 0 C4 0.66 4 1.32 4 2 C4.61875 2.268125 5.2375 2.53625 5.875 2.8125 C8 4 8 4 10 7 C8.68 7 7.36 7 6 7 C5.01 7.33 4.02 7.66 3 8 C0 2.25 0 2.25 0 0 Z " fill="#9F6A36" transform="translate(111,45)"/>
<path d="M0 0 C0.79921875 0.11085937 1.5984375 0.22171875 2.421875 0.3359375 C3.32679687 0.47902344 3.32679687 0.47902344 4.25 0.625 C3.59 1.945 2.93 3.265 2.25 4.625 C-1.38 3.635 -5.01 2.645 -8.75 1.625 C-4.77033543 -0.36483228 -4.07324868 -0.59900716 0 0 Z " fill="#533023" transform="translate(75.75,195.375)"/>
<path d="M0 0 C0 0.66 0 1.32 0 2 C0.99 2.33 1.98 2.66 3 3 C-5.91 3 -14.82 3 -24 3 C-24 2.67 -24 2.34 -24 2 C-22.73542969 1.93941406 -21.47085938 1.87882813 -20.16796875 1.81640625 C-18.50780129 1.73199096 -16.84764563 1.64734345 -15.1875 1.5625 C-14.35412109 1.52318359 -13.52074219 1.48386719 -12.66210938 1.44335938 C-11.85966797 1.40146484 -11.05722656 1.35957031 -10.23046875 1.31640625 C-9.12288208 1.26141968 -9.12288208 1.26141968 -7.99291992 1.20532227 C-5.14470109 0.9118821 -2.92213908 0 0 0 Z " fill="#DAC3B6" transform="translate(128,133)"/>
<path d="M0 0 C3.96 0 7.92 0 12 0 C12 0.66 12 1.32 12 2 C9.47524538 3.26237731 7.68799534 3.09856404 4.875 3.0625 C3.96492187 3.05347656 3.05484375 3.04445312 2.1171875 3.03515625 C1.41851562 3.02355469 0.71984375 3.01195312 0 3 C0 2.01 0 1.02 0 0 Z " fill="#F4EDE2" transform="translate(128,132)"/>
<path d="M0 0 C1.31223496 3.93670488 0.24296256 6.12488144 -1 10 C-2.32 9.67 -3.64 9.34 -5 9 C-4.5206753 4.68607774 -3.2542015 2.83430453 0 0 Z " fill="#2D191B" transform="translate(161,137)"/>
<path d="M0 0 C4 2 4 2 5 3 C5.04063832 4.66617115 5.042721 6.33388095 5 8 C4.34 8 3.68 8 3 8 C2.67 6.68 2.34 5.36 2 4 C1.34 4 0.68 4 0 4 C0.33 5.65 0.66 7.3 1 9 C0.01 9 -0.98 9 -2 9 C-1.34 6.03 -0.68 3.06 0 0 Z " fill="#210C09" transform="translate(161,120)"/>
<path d="M0 0 C0.66666667 1.33333333 1.33333333 2.66666667 2 4 C2.53625 5.03125 3.0725 6.0625 3.625 7.125 C5 10 5 10 5 12 C2.13275314 11.42655063 1.1385485 11.1385485 -1 9 C-1.33870968 2.67741935 -1.33870968 2.67741935 0 0 Z " fill="#F8EADC" transform="translate(85,58)"/>
<path d="M0 0 C4.56048012 3.61251516 8.01665146 6.98797445 11 12 C10.34 13.32 9.68 14.64 9 16 C8.7525 15.2575 8.505 14.515 8.25 13.75 C6.88861048 10.75494305 5.3426579 9.27166827 3 7 C0 2.5 0 2.5 0 0 Z " fill="#8A6342" transform="translate(120,52)"/>
<path d="M0 0 C3.3 0 6.6 0 10 0 C8.68 0.33 7.36 0.66 6 1 C5.7834375 1.928125 5.7834375 1.928125 5.5625 2.875 C5 5 5 5 4 7 C2.35 7 0.7 7 -1 7 C-0.01 6.01 0.98 5.02 2 4 C1.34 2.68 0.68 1.36 0 0 Z " fill="#24090A" transform="translate(108,168)"/>
<path d="M0 0 C0.66 0 1.32 0 2 0 C1.979375 0.78375 1.95875 1.5675 1.9375 2.375 C1.81315937 4.98114961 1.81315937 4.98114961 3 7 C2.01 7 1.02 7 0 7 C0 8.32 0 9.64 0 11 C-0.66 11 -1.32 11 -2 11 C-2.25 3.375 -2.25 3.375 0 0 Z " fill="#40170F" transform="translate(167,147)"/>
<path d="M0 0 C-0.33 0.66 -0.66 1.32 -1 2 C-1.66 2 -2.32 2 -3 2 C-3 2.99 -3 3.98 -3 5 C-3.99 5.33 -4.98 5.66 -6 6 C-7.5 4.625 -7.5 4.625 -9 3 C-9 2.34 -9 1.68 -9 1 C-9.66 0.67 -10.32 0.34 -11 0 C-7.01803543 -1.05404945 -4.01804691 -0.84098656 0 0 Z " fill="#36191E" transform="translate(158,132)"/>
<path d="M0 0 C4.875 4.75 4.875 4.75 6 7 C4.02 7.99 2.04 8.98 0 10 C-0.144375 9.05125 -0.28875 8.1025 -0.4375 7.125 C-0.82935399 4.1065506 -0.82935399 4.1065506 -2 2 C-1.34 2 -0.68 2 0 2 C0 1.34 0 0.68 0 0 Z " fill="#8A5538" transform="translate(102,63)"/>
<path d="M0 0 C-0.99 0.33 -1.98 0.66 -3 1 C-3 1.66 -3 2.32 -3 3 C-5.1875 3.75 -5.1875 3.75 -8 4 C-10.8125 2.0625 -10.8125 2.0625 -13 0 C-8.34462607 -0.83796731 -4.62921525 -1.0161692 0 0 Z " fill="#C7B1A0" transform="translate(144,181)"/>
<path d="M0 0 C1.79244141 0.01740234 1.79244141 0.01740234 3.62109375 0.03515625 C5.41740234 0.04869141 5.41740234 0.04869141 7.25 0.0625 C8.17683594 0.07410156 9.10367188 0.08570313 10.05859375 0.09765625 C10.05859375 0.42765625 10.05859375 0.75765625 10.05859375 1.09765625 C8.91390625 1.28328125 8.91390625 1.28328125 7.74609375 1.47265625 C4.85592239 1.97868417 4.85592239 1.97868417 2.05859375 4.09765625 C-1.12890625 4.22265625 -1.12890625 4.22265625 -3.94140625 4.09765625 C-3.94140625 0.13085678 -3.94140625 0.13085678 0 0 Z " fill="#482A24" transform="translate(109.94140625,135.90234375)"/>
<path d="M0 0 C2.31 0.33 4.62 0.66 7 1 C7 2.66666667 7 4.33333333 7 6 C5.68 6 4.36 6 3 6 C3 6.66 3 7.32 3 8 C1.68 7.34 0.36 6.68 -1 6 C-0.01 5.01 0.98 4.02 2 3 C1.34 2.67 0.68 2.34 0 2 C0 1.34 0 0.68 0 0 Z " fill="#834C28" transform="translate(129,124)"/>
<path d="M0 0 C1.32 0 2.64 0 4 0 C3.649375 0.9075 3.29875 1.815 2.9375 2.75 C2.03531221 5.87758436 1.86618493 7.05208081 3 10 C2.01 9.67 1.02 9.34 0 9 C-1.125 3.375 -1.125 3.375 0 0 Z " fill="#7C3C1A" transform="translate(100,72)"/>
<path d="M0 0 C7.92 0.33 15.84 0.66 24 1 C24 1.33 24 1.66 24 2 C20.7515089 2.25549427 17.50154879 2.47476093 14.25 2.6875 C12.86941406 2.79674805 12.86941406 2.79674805 11.4609375 2.90820312 C10.57148437 2.96298828 9.68203125 3.01777344 8.765625 3.07421875 C7.94868164 3.13182373 7.13173828 3.18942871 6.29003906 3.2487793 C4 3 4 3 0 0 Z " fill="#F9EFDF" transform="translate(104,186)"/>
<path d="M0 0 C2.14729141 0.28073073 4.29283193 0.57488499 6.4375 0.875 C7.63246094 1.03742188 8.82742187 1.19984375 10.05859375 1.3671875 C11.51458984 1.68042969 11.51458984 1.68042969 13 2 C13.33 2.66 13.66 3.32 14 4 C13.67 4.66 13.34 5.32 13 6 C11.58034858 5.57228451 10.1643776 5.13234457 8.75 4.6875 C7.96109375 4.44386719 7.1721875 4.20023438 6.359375 3.94921875 C3.87302768 2.94891677 2.0657166 1.69142391 0 0 Z " fill="#F7E8E3" transform="translate(66,185)"/>
<path d="M0 0 C0.99 0.33 1.98 0.66 3 1 C1.54955729 5.10958767 -0.51110752 8.43258745 -3 12 C-3.99 11.34 -4.98 10.68 -6 10 C-5.65066406 9.52949219 -5.30132812 9.05898437 -4.94140625 8.57421875 C-4.48636719 7.95160156 -4.03132812 7.32898438 -3.5625 6.6875 C-2.88380859 5.76517578 -2.88380859 5.76517578 -2.19140625 4.82421875 C-0.82663692 2.90322899 -0.82663692 2.90322899 0 0 Z " fill="#E7DAD3" transform="translate(180,139)"/>
<path d="M0 0 C0 2.31 0 4.62 0 7 C-1.98 7 -3.96 7 -6 7 C-5.39816251 4.97954558 -4.72693904 2.97888961 -4 1 C-2 0 -2 0 0 0 Z " fill="#290F0E" transform="translate(85,127)"/>
<path d="M0 0 C6.27 0.33 12.54 0.66 19 1 C19 1.99 19 2.98 19 4 C16.95825942 3.68798326 14.91661087 3.37536431 12.875 3.0625 C11.16957031 2.80146484 11.16957031 2.80146484 9.4296875 2.53515625 C6.28267331 2.04410734 3.14069217 1.52981281 0 1 C0 0.67 0 0.34 0 0 Z " fill="#F3E3CE" transform="translate(125,123)"/>
<path d="M0 0 C2 2 2 2 3.5 4.5625 C4.76866837 7.10406871 4.76866837 7.10406871 7 8 C7 9.65 7 11.3 7 13 C3.74085049 9.91702073 0.93446327 7.0838669 -1 3 C-0.67 2.01 -0.34 1.02 0 0 Z " fill="#8C623E" transform="translate(112,48)"/>
<path d="M0 0 C0.33 0 0.66 0 1 0 C1.64165788 5.26159459 0.20577001 7.68592849 -2.90625 11.6796875 C-3.2671875 12.11539063 -3.628125 12.55109375 -4 13 C-4.66 12.67 -5.32 12.34 -6 12 C-5.01 10.68 -4.02 9.36 -3 8 C-3.99 8.33 -4.98 8.66 -6 9 C-6 8.34 -6 7.68 -6 7 C-5.01 7 -4.02 7 -3 7 C-3 6.34 -3 5.68 -3 5 C-2.34 4.67 -1.68 4.34 -1 4 C-0.34786708 1.97536745 -0.34786708 1.97536745 0 0 Z " fill="#EAE2E0" transform="translate(159,167)"/>
<path d="M0 0 C3 0 3 0 6 1 C5.67 2.32 5.34 3.64 5 5 C4.01 5 3.02 5 2 5 C2 5.66 2 6.32 2 7 C1.34 7 0.68 7 0 7 C0 4.69 0 2.38 0 0 Z " fill="#240D0A" transform="translate(48,172)"/>
<path d="M0 0 C1.828125 0.27734375 1.828125 0.27734375 4 1 C6.24707241 1.2198223 8.49771238 1.40483987 10.75 1.5625 C11.92046875 1.64628906 13.0909375 1.73007813 14.296875 1.81640625 C15.18890625 1.87699219 16.0809375 1.93757813 17 2 C17 2.33 17 2.66 17 3 C10.07 3 3.14 3 -4 3 C-2.68 2.01 -1.36 1.02 0 0 Z " fill="#FDFBEE" transform="translate(111,120)"/>
<path d="M0 0 C2.875 0.6875 2.875 0.6875 6 2 C7.1875 4.375 7.1875 4.375 8 7 C8.95824253 8.36365283 9.94721175 9.70794169 11 11 C10.01 11.33 9.02 11.66 8 12 C6.66382103 10.18959679 5.33112616 8.3766216 4 6.5625 C3.2575 5.55316406 2.515 4.54382813 1.75 3.50390625 C0 1 0 1 0 0 Z " fill="#6E3E28" transform="translate(92,72)"/>
<path d="M0 0 C6.625 -0.25 6.625 -0.25 10 2 C3.71428571 4.42857143 3.71428571 4.42857143 0 3 C0 2.01 0 1.02 0 0 Z " fill="#280F0F" transform="translate(97,166)"/>
<path d="M0 0 C1.875 0.25 1.875 0.25 4 1 C5.125 3 5.125 3 6 5 C6.66 5.33 7.32 5.66 8 6 C7.67 6.99 7.34 7.98 7 9 C5.35 8.67 3.7 8.34 2 8 C2 5.69 2 3.38 2 1 C1.34 0.67 0.68 0.34 0 0 Z " fill="#4A1F17" transform="translate(94,127)"/>
<path d="M0 0 C3.28788824 3.11016455 5.83735988 6.01618925 8 10 C5.625 9.75 5.625 9.75 3 9 C1.03456852 6.24839593 0.54999399 3.29996391 0 0 Z " fill="#F3E8DF" transform="translate(90,70)"/>
<path d="M0 0 C5.61 0 11.22 0 17 0 C16.67 1.32 16.34 2.64 16 4 C15.34 4 14.68 4 14 4 C14 3.34 14 2.68 14 2 C9.38 2.33 4.76 2.66 0 3 C0 2.01 0 1.02 0 0 Z " fill="#F0E1D7" transform="translate(179,177)"/>
<path d="M0 0 C2.64 0 5.28 0 8 0 C7.67 1.32 7.34 2.64 7 4 C5.02 4.33 3.04 4.66 1 5 C0.67 3.35 0.34 1.7 0 0 Z " fill="#311212" transform="translate(38,111)"/>
<path d="M0 0 C6.625 -0.25 6.625 -0.25 10 2 C10 2.66 10 3.32 10 4 C6.37 3.67 2.74 3.34 -1 3 C-0.67 2.01 -0.34 1.02 0 0 Z " fill="#DFDAD6" transform="translate(100,108)"/>
<path d="M0 0 C2.39489543 0.74324341 3.70777616 1.47057354 4.93359375 3.69140625 C5.67219923 5.44073501 6.34049685 7.21934149 7 9 C5.68 9.33 4.36 9.66 3 10 C3 7.69 3 5.38 3 3 C1.68 2.34 0.36 1.68 -1 1 C-0.67 0.67 -0.34 0.34 0 0 Z " fill="#79452F" transform="translate(106,70)"/>
<path d="M0 0 C0.33 0.66 0.66 1.32 1 2 C0.22265625 3.7265625 0.22265625 3.7265625 -0.9375 5.625 C-1.618125 6.73875 -2.29875 7.8525 -3 9 C-3.33 8.01 -3.66 7.02 -4 6 C-5.32 6.33 -6.64 6.66 -8 7 C-7.67 6.34 -7.34 5.68 -7 5 C-6.34 5 -5.68 5 -5 5 C-5 4.34 -5 3.68 -5 3 C-2.5 1.375 -2.5 1.375 0 0 Z " fill="#CFC1B6" transform="translate(120,19)"/>
<path d="M0 0 C6.0546875 -0.1953125 6.0546875 -0.1953125 8 0 C8.66 0.66 9.32 1.32 10 2 C6.78548731 3.60725635 3.56387464 3.05748185 0 3 C0 2.01 0 1.02 0 0 Z " fill="#BD987A" transform="translate(120,184)"/>
<path d="M0 0 C0.33 0.66 0.66 1.32 1 2 C1.66 2.33 2.32 2.66 3 3 C2.34 3 1.68 3 1 3 C1 3.66 1 4.32 1 5 C-3.31818182 9.65909091 -3.31818182 9.65909091 -6 11 C-6.66 10.34 -7.32 9.68 -8 9 C-6.576875 7.88625 -6.576875 7.88625 -5.125 6.75 C-2.67467599 4.72154781 -1.12674637 3.0422152 0 0 Z " fill="#F2E6D9" transform="translate(205,167)"/>
<path d="M0 0 C0.33 0 0.66 0 1 0 C1.18175781 0.84884766 1.18175781 0.84884766 1.3671875 1.71484375 C1.53476563 2.44832031 1.70234375 3.18179688 1.875 3.9375 C2.03742188 4.66839844 2.19984375 5.39929688 2.3671875 6.15234375 C2.82961523 8.20700294 2.82961523 8.20700294 5 9 C5 9.66 5 10.32 5 11 C2.53199953 9.84826645 0.95216435 8.95216435 -1 7 C-0.625 3.375 -0.625 3.375 0 0 Z " fill="#F8EED8" transform="translate(77,164)"/>
<path d="M0 0 C0 0.99 0 1.98 0 3 C-0.66 3 -1.32 3 -2 3 C-2 3.66 -2 4.32 -2 5 C-3.875 5.625 -3.875 5.625 -6 6 C-6.66 5.34 -7.32 4.68 -8 4 C-8 3.34 -8 2.68 -8 2 C-2.25 0 -2.25 0 0 0 Z " fill="#2F1D1C" transform="translate(130,164)"/>
<path d="M0 0 C0.66 0.33 1.32 0.66 2 1 C1.06027344 1.61488281 1.06027344 1.61488281 0.1015625 2.2421875 C-0.71570313 2.78101563 -1.53296875 3.31984375 -2.375 3.875 C-3.59316406 4.67550781 -3.59316406 4.67550781 -4.8359375 5.4921875 C-7.07594096 6.95865055 -7.07594096 6.95865055 -9 9 C-9.33 7.68 -9.66 6.36 -10 5 C-8.38007835 4.13624104 -6.75388139 3.28424146 -5.125 2.4375 C-4.22007813 1.96183594 -3.31515625 1.48617187 -2.3828125 0.99609375 C-1.20332031 0.50302734 -1.20332031 0.50302734 0 0 Z " fill="#423131" transform="translate(65,157)"/>
<path d="M0 0 C2.31 0 4.62 0 7 0 C7 3 7 3 5.5 4.6875 C5.005 5.120625 4.51 5.55375 4 6 C2.62437146 4.71034824 1.29233607 3.37310707 0 2 C0 1.34 0 0.68 0 0 Z " fill="#3A241F" transform="translate(78,156)"/>
<path d="M0 0 C3.46941546 0.45822468 6.67395049 0.89131683 10 2 C10 2.66 10 3.32 10 4 C6.7 3.67 3.4 3.34 0 3 C0 2.01 0 1.02 0 0 Z " fill="#894F28" transform="translate(175,155)"/>
<path d="M0 0 C1.32 1.65 2.64 3.3 4 5 C1 7 1 7 -2 7 C-2 5 -2 5 -1 4 C-1.99 3.67 -2.98 3.34 -4 3 C-2.68 2.01 -1.36 1.02 0 0 Z " fill="#280C0D" transform="translate(157,129)"/>
<path d="M0 0 C5.95703125 -0.29296875 5.95703125 -0.29296875 8 0 C8.99 0.99 9.98 1.98 11 3 C7.04 3 3.08 3 -1 3 C-0.67 2.01 -0.34 1.02 0 0 Z " fill="#6A2E12" transform="translate(109,126)"/>
<path d="M0 0 C0.33 0 0.66 0 1 0 C1 4.62 1 9.24 1 14 C-0.65 14.66 -2.3 15.32 -4 16 C-3.525625 15.030625 -3.05125 14.06125 -2.5625 13.0625 C-0.71147001 8.80163851 -0.30248407 4.59984394 0 0 Z " fill="#F4E1D4" transform="translate(134,75)"/>
<path d="M0 0 C0.66 0 1.32 0 2 0 C2.33 1.65 2.66 3.3 3 5 C3.66 5 4.32 5 5 5 C4.34 6.32 3.68 7.64 3 9 C1.02 8.01 -0.96 7.02 -3 6 C-2.01 5.34 -1.02 4.68 0 4 C0 2.68 0 1.36 0 0 Z " fill="#EFE7E5" transform="translate(171,165)"/>
<path d="M0 0 C3.465 1.98 3.465 1.98 7 4 C7 4.66 7 5.32 7 6 C6.34 6 5.68 6 5 6 C5 6.66 5 7.32 5 8 C4.34 8 3.68 8 3 8 C0 2.25 0 2.25 0 0 Z " fill="#E5E0DA" transform="translate(68,131)"/>
<path d="M0 0 C0.66 0 1.32 0 2 0 C1.6875 3.375 1.6875 3.375 1 7 C0.01 7.66 -0.98 8.32 -2 9 C-2.25 3.375 -2.25 3.375 0 0 Z " fill="#FCF3E3" transform="translate(125,82)"/>
<path d="M0 0 C2.4375 0.75 2.4375 0.75 5 2 C5.8125 4.125 5.8125 4.125 6 6 C4.68 6 3.36 6 2 6 C0 3 0 3 0 0 Z " fill="#76482A" transform="translate(88,64)"/>
<path d="M0 0 C0.66 0.33 1.32 0.66 2 1 C-1.15727951 3.70623958 -3.934721 5.93018974 -8 7 C-8.99 6.34 -9.98 5.68 -11 5 C-9.93458984 4.58427734 -9.93458984 4.58427734 -8.84765625 4.16015625 C-7.46900391 3.61681641 -7.46900391 3.61681641 -6.0625 3.0625 C-5.14597656 2.70285156 -4.22945312 2.34320313 -3.28515625 1.97265625 C-1.07581467 1.2003782 -1.07581467 1.2003782 0 0 Z " fill="#F8ECD8" transform="translate(168,192)"/>
<path d="M0 0 C2.31 1.65 4.62 3.3 7 5 C6.67 5.66 6.34 6.32 6 7 C3.5625 6.625 3.5625 6.625 1 6 C0.33333333 4.66666667 -0.33333333 3.33333333 -1 2 C-0.67 1.34 -0.34 0.68 0 0 Z " fill="#F7EDDC" transform="translate(74,174)"/>
<path d="M0 0 C0.66 0 1.32 0 2 0 C2 0.66 2 1.32 2 2 C2.99 2.33 3.98 2.66 5 3 C5.33 3.66 5.66 4.32 6 5 C3.36 5 0.72 5 -2 5 C-2 4.01 -2 3.02 -2 2 C-1.34 2 -0.68 2 0 2 C0 1.34 0 0.68 0 0 Z " fill="#4B2517" transform="translate(182,173)"/>
<path d="M0 0 C1.7074998 1.28062485 3.37373596 2.61767557 5 4 C5 4.66 5 5.32 5 6 C2.03 5.505 2.03 5.505 -1 5 C-1.33 4.01 -1.66 3.02 -2 2 C-1.34 2 -0.68 2 0 2 C0 1.34 0 0.68 0 0 Z " fill="#1F0E0B" transform="translate(78,151)"/>
<path d="M0 0 C3.96 0.33 7.92 0.66 12 1 C12 1.33 12 1.66 12 2 C7.9472484 2.98248524 4.16138263 3.08159574 0 3 C0 2.01 0 1.02 0 0 Z " fill="#704C36" transform="translate(92,194)"/>
<path d="M0 0 C2.0625 0.4375 2.0625 0.4375 4 1 C1.04816899 3.95183101 -1.95511947 4.08663988 -6 5 C-6 3.68 -6 2.36 -6 1 C-4.7934375 1.0309375 -4.7934375 1.0309375 -3.5625 1.0625 C-1.06645115 1.29633621 -1.06645115 1.29633621 0 0 Z " fill="#F7EDDE" transform="translate(166,186)"/>
<path d="M0 0 C2.4375 0.375 2.4375 0.375 5 1 C5.33 1.66 5.66 2.32 6 3 C5.01 3.99 4.02 4.98 3 6 C2.34 5.67 1.68 5.34 1 5 C0.375 2.4375 0.375 2.4375 0 0 Z " fill="#2D1C1C" transform="translate(73,148)"/>
<path d="M0 0 C0.66 0.66 1.32 1.32 2 2 C1.8125 4.0625 1.8125 4.0625 1 6 C0.01 6.33 -0.98 6.66 -2 7 C-2.66 5.68 -3.32 4.36 -4 3 C-2.68 2.01 -1.36 1.02 0 0 Z " fill="#230E10" transform="translate(58,115)"/>
<path d="M0 0 C0.80824219 0.10183594 1.61648437 0.20367187 2.44921875 0.30859375 C3.06410156 0.39238281 3.67898437 0.47617188 4.3125 0.5625 C1.69308783 2.30877478 0.27425123 2.94972388 -2.6875 3.5625 C-2.6875 2.9025 -2.6875 2.2425 -2.6875 1.5625 C-3.6775 1.8925 -4.6675 2.2225 -5.6875 2.5625 C-6.3475 1.9025 -7.0075 1.2425 -7.6875 0.5625 C-4.59271121 -0.46909626 -3.16118607 -0.41232862 0 0 Z " fill="#EDE6E3" transform="translate(77.6875,112.4375)"/>
<path d="M0 0 C1.98 0.495 1.98 0.495 4 1 C4.33 2.32 4.66 3.64 5 5 C4.01 4.67 3.02 4.34 2 4 C1.67 4.66 1.34 5.32 1 6 C-0.0625 4.125 -0.0625 4.125 -1 2 C-0.67 1.34 -0.34 0.68 0 0 Z " fill="#35201D" transform="translate(49,168)"/>
<path d="M0 0 C-0.99 0.33 -1.98 0.66 -3 1 C-4.21869929 3.50447516 -4.21869929 3.50447516 -5 6 C-5.66 5.67 -6.32 5.34 -7 5 C-6.67 3.35 -6.34 1.7 -6 0 C-2.25 -1.125 -2.25 -1.125 0 0 Z " fill="#472215" transform="translate(180,165)"/>
<path d="M0 0 C0.66 0.33 1.32 0.66 2 1 C-2.5 5 -2.5 5 -7 5 C-7 4.34 -7 3.68 -7 3 C-4.69631264 1.93347808 -2.35981813 0.93578995 0 0 Z " fill="#FAF0EC" transform="translate(132,90)"/>
<path d="M0 0 C2 1 2 1 2.6328125 2.84765625 C2.79523438 3.57855469 2.95765625 4.30945313 3.125 5.0625 C3.29257813 5.79597656 3.46015625 6.52945313 3.6328125 7.28515625 C3.75398438 7.85105469 3.87515625 8.41695312 4 9 C3.01 9.495 3.01 9.495 2 10 C0.02 6.535 0.02 6.535 -2 3 C-1.34 3 -0.68 3 0 3 C0 2.01 0 1.02 0 0 Z " fill="#F6EDE2" transform="translate(108,64)"/>
<path d="M0 0 C0.99 0 1.98 0 3 0 C3 0.99 3 1.98 3 3 C3.66 3 4.32 3 5 3 C4.34 4.32 3.68 5.64 3 7 C2.34 6.01 1.68 5.02 1 4 C0.01 3.67 -0.98 3.34 -2 3 C-1.34 2.01 -0.68 1.02 0 0 Z " fill="#A4784F" transform="translate(94,36)"/>
<path d="M0 0 C1.98 0.495 1.98 0.495 4 1 C3.34 1.66 2.68 2.32 2 3 C1.83318891 6.08347826 1.83318891 6.08347826 2 9 C1.01 8.34 0.02 7.68 -1 7 C-0.67 4.69 -0.34 2.38 0 0 Z " fill="#FCF5E2" transform="translate(71,164)"/>
<path d="M0 0 C0.66 0.99 1.32 1.98 2 3 C1.01 3 0.02 3 -1 3 C-1.33 4.32 -1.66 5.64 -2 7 C-2.99 7 -3.98 7 -5 7 C-5 5.68 -5 4.36 -5 3 C-2.5 1.25 -2.5 1.25 0 0 Z " fill="#35201F" transform="translate(137,159)"/>
<path d="M0 0 C1.9375 0.3125 1.9375 0.3125 4 1 C4.33 1.99 4.66 2.98 5 4 C4.67 4.66 4.34 5.32 4 6 C2.68 5.67 1.36 5.34 0 5 C0 3.35 0 1.7 0 0 Z " fill="#56362B" transform="translate(165,158)"/>
<path d="M0 0 C0.99 0.33 1.98 0.66 3 1 C3 1.66 3 2.32 3 3 C2.34 3 1.68 3 1 3 C0.67 4.32 0.34 5.64 0 7 C-0.66 6.67 -1.32 6.34 -2 6 C-1.125 1.125 -1.125 1.125 0 0 Z " fill="#321714" transform="translate(34,130)"/>
<path d="M0 0 C0.99 0.33 1.98 0.66 3 1 C2.34 3.31 1.68 5.62 1 8 C0.34 8 -0.32 8 -1 8 C-1.33 6.68 -1.66 5.36 -2 4 C-1.34 4 -0.68 4 0 4 C0 2.68 0 1.36 0 0 Z " fill="#321B1E" transform="translate(59,117)"/>
<path d="M0 0 C1.58502671 3.17005342 1.60385067 6.49124878 2 10 C1.01 10.495 1.01 10.495 0 11 C-1.62651522 7.74696956 -1.11453156 4.60774398 -1 1 C-0.67 0.67 -0.34 0.34 0 0 Z " fill="#F9F4E6" transform="translate(116,35)"/>
<path d="M0 0 C3.3 0.66 6.6 1.32 10 2 C10 2.33 10 2.66 10 3 C8.72125 3.144375 7.4425 3.28875 6.125 3.4375 C3.74307106 3.70642746 2.15547309 3.92226346 0 5 C-0.33 4.01 -0.66 3.02 -1 2 C-0.67 1.34 -0.34 0.68 0 0 Z " fill="#FAF0E1" transform="translate(90,183)"/>
<path d="M0 0 C1.98 0.495 1.98 0.495 4 1 C3.67 2.98 3.34 4.96 3 7 C2.34 7 1.68 7 1 7 C1 5.68 1 4.36 1 3 C0.34 3 -0.32 3 -1 3 C-0.67 2.01 -0.34 1.02 0 0 Z " fill="#280D0E" transform="translate(139,158)"/>
<path d="M0 0 C0.66 0.66 1.32 1.32 2 2 C-0.31 3.65 -2.62 5.3 -5 7 C-5.33 5.68 -5.66 4.36 -6 3 C-4.02 2.67 -2.04 2.34 0 2 C0 1.34 0 0.68 0 0 Z " fill="#EBE3E6" transform="translate(142,153)"/>
<path d="M0 0 C2.5 1.3125 2.5 1.3125 5 3 C5 3.99 5 4.98 5 6 C4.01 6 3.02 6 2 6 C2 4.68 2 3.36 2 2 C1.34 2 0.68 2 0 2 C0 2.66 0 3.32 0 4 C-0.66 3.67 -1.32 3.34 -2 3 C-1.34 2.01 -0.68 1.02 0 0 Z " fill="#341F1E" transform="translate(38,133)"/>
<path d="M0 0 C0.66 0.99 1.32 1.98 2 3 C0.68 3.99 -0.64 4.98 -2 6 C-2 5.34 -2 4.68 -2 4 C-2.99 3.67 -3.98 3.34 -5 3 C-2 1 -2 1 0 0 Z " fill="#DCDFD9" transform="translate(160,134)"/>
<path d="M0 0 C0.33 0 0.66 0 1 0 C1.66 2.64 2.32 5.28 3 8 C1.35 7.67 -0.3 7.34 -2 7 C-1.125 2.25 -1.125 2.25 0 0 Z " fill="#5E4241" transform="translate(66,123)"/>
<path d="M0 0 C0.99 0.33 1.98 0.66 3 1 C3.33 1.99 3.66 2.98 4 4 C2.68 5.32 1.36 6.64 0 8 C0 5.36 0 2.72 0 0 Z " fill="#B78F6C" transform="translate(107,35)"/>
<path d="M0 0 C-0.33 1.32 -0.66 2.64 -1 4 C-3.31 3.34 -5.62 2.68 -8 2 C-8 1.67 -8 1.34 -8 1 C-5.23735711 0.40267181 -2.83967231 0 0 0 Z " fill="#9B6C47" transform="translate(152,193)"/>
<path d="M0 0 C2.64 0 5.28 0 8 0 C7.67 0.99 7.34 1.98 7 3 C4.36 2.67 1.72 2.34 -1 2 C-0.67 1.34 -0.34 0.68 0 0 Z " fill="#EFE0D8" transform="translate(85,191)"/>
<path d="M0 0 C0.99 0 1.98 0 3 0 C3.33 1.65 3.66 3.3 4 5 C2.0625 4.625 2.0625 4.625 0 4 C-0.33 3.34 -0.66 2.68 -1 2 C-0.67 1.34 -0.34 0.68 0 0 Z " fill="#935321" transform="translate(198,165)"/>
<path d="M0 0 C-0.33 1.98 -0.66 3.96 -1 6 C-2.32 5.34 -3.64 4.68 -5 4 C-5 3.01 -5 2.02 -5 1 C-2 0 -2 0 0 0 Z " fill="#220D0B" transform="translate(93,162)"/>
<path d="M0 0 C1.65 0.33 3.3 0.66 5 1 C5 1.99 5 2.98 5 4 C3.02 4 1.04 4 -1 4 C-0.67 2.68 -0.34 1.36 0 0 Z " fill="#683218" transform="translate(177,149)"/>
<path d="M0 0 C1.70840281 1.63412443 2.93453047 2.86906094 4 5 C2.02 5.33 0.04 5.66 -2 6 C-1.125 1.125 -1.125 1.125 0 0 Z " fill="#200C08" transform="translate(155,143)"/>
<path d="M0 0 C0.99 0.66 1.98 1.32 3 2 C2.67 2.99 2.34 3.98 2 5 C0.68 5 -0.64 5 -2 5 C-1.125 1.125 -1.125 1.125 0 0 Z " fill="#271413" transform="translate(186,136)"/>
<path d="M0 0 C0 0.66 0 1.32 0 2 C-4.455 3.485 -4.455 3.485 -9 5 C-4.16129032 0 -4.16129032 0 0 0 Z " fill="#332122" transform="translate(177,134)"/>
<path d="M0 0 C0.33 0 0.66 0 1 0 C1.33 2.64 1.66 5.28 2 8 C0.68 7.67 -0.64 7.34 -2 7 C-1.125 2.25 -1.125 2.25 0 0 Z " fill="#341415" transform="translate(33,120)"/>
<path d="M0 0 C2.64 0.33 5.28 0.66 8 1 C7.67 1.99 7.34 2.98 7 4 C4.97954558 3.39816251 2.97888961 2.72693904 1 2 C0.67 1.34 0.34 0.68 0 0 Z " fill="#2C2424" transform="translate(147,115)"/>
<path d="M0 0 C0.66 0.33 1.32 0.66 2 1 C1.67 2.98 1.34 4.96 1 7 C-0.32 7 -1.64 7 -3 7 C-1.125 2.25 -1.125 2.25 0 0 Z " fill="#392A26" transform="translate(104,102)"/>
<path d="M0 0 C0.33 0 0.66 0 1 0 C1 2.97 1 5.94 1 9 C-0.37562854 7.71034824 -1.70766393 6.37310707 -3 5 C-3 4.34 -3 3.68 -3 3 C-2.01 3 -1.02 3 0 3 C0 2.01 0 1.02 0 0 Z " fill="#B69576" transform="translate(113,29)"/>
<path d="M0 0 C0.33 0.66 0.66 1.32 1 2 C-2.375 2.625 -2.375 2.625 -6 3 C-6.66 2.34 -7.32 1.68 -8 1 C-5.29120665 -0.35439668 -2.99066732 -0.06501451 0 0 Z " fill="#845131" transform="translate(138,200)"/>
<path d="M0 0 C2.64 0 5.28 0 8 0 C7.67 0.66 7.34 1.32 7 2 C3.9375 2.625 3.9375 2.625 1 3 C0.67 2.01 0.34 1.02 0 0 Z " fill="#9E5923" transform="translate(145,196)"/>
<path d="M0 0 C2.475 0.495 2.475 0.495 5 1 C4.67 1.99 4.34 2.98 4 4 C2.68 3.67 1.36 3.34 0 3 C0 2.01 0 1.02 0 0 Z " fill="#9C6E43" transform="translate(80,176)"/>
<path d="M0 0 C0 0.66 0 1.32 0 2 C-2.875 2.625 -2.875 2.625 -6 3 C-6.66 2.34 -7.32 1.68 -8 1 C-5.29120665 -0.35439668 -2.99066732 -0.06501451 0 0 Z " fill="#FDF5EC" transform="translate(150,176)"/>
<path d="M0 0 C1.32 1.32 2.64 2.64 4 4 C3.01 4.33 2.02 4.66 1 5 C0.67 5.66 0.34 6.32 0 7 C0 6.34 0 5.68 0 5 C-0.66 4.67 -1.32 4.34 -2 4 C-1.34 2.68 -0.68 1.36 0 0 Z " fill="#9E7559" transform="translate(173,160)"/>
<path d="M0 0 C0.66 0.99 1.32 1.98 2 3 C1.67 3.99 1.34 4.98 1 6 C-0.32 5.34 -1.64 4.68 -3 4 C-2.01 2.68 -1.02 1.36 0 0 Z " fill="#322021" transform="translate(78,131)"/>
<path d="M0 0 C2.475 0.495 2.475 0.495 5 1 C5 1.99 5 2.98 5 4 C4.34 4.66 3.68 5.32 3 6 C1.5 4.6875 1.5 4.6875 0 3 C0 2.01 0 1.02 0 0 Z " fill="#3A1E1E" transform="translate(158,128)"/>
<path d="M0 0 C0.99 0.33 1.98 0.66 3 1 C3.33 1.99 3.66 2.98 4 4 C3.01 4.33 2.02 4.66 1 5 C1.33 5.99 1.66 6.98 2 8 C1.34 8 0.68 8 0 8 C0 5.36 0 2.72 0 0 Z " fill="#391512" transform="translate(105,100)"/>
<path d="M0 0 C0.95465783 2.16967689 1.14401212 3.56328793 0.3984375 5.82421875 C-0.35870385 7.5684743 -1.17609198 9.28627131 -2 11 C-2.98120464 7.94736336 -2.98120464 6.05263664 -2 3 C-1.34 3 -0.68 3 0 3 C0 2.01 0 1.02 0 0 Z " fill="#F8EAD9" transform="translate(88,39)"/>
</svg>
